# MagicaVoxel @ Ephtracy

# group
o 

# material
mtllib bomb.mtl
usemtl palette

# normals
vn -1 0 0
vn 1 0 0
vn 0 0 1
vn 0 0 -1
vn 0 -1 0
vn 0 1 0

# texcoords
vt 0.0644531 0.5
vt 0.158203 0.5
vt 0.841797 0.5
vt 0.970703 0.5
vt 0.982422 0.5
vt 0.994141 0.5

# verts
v -0.5 0 0.3
v -0.5 0 0.2
v -0.5 0.1 0.3
v -0.5 0.1 0.2
v -0.4 0 0.2
v -0.4 0 0.1
v -0.4 0.1 0.2
v -0.4 0.1 0.1
v -0.3 0 0.1
v -0.3 0 0
v -0.3 0.1 0.1
v -0.3 0.1 0
v -0.2 0 0.7
v -0.2 0 0.5
v -0.2 0 0.4
v -0.2 0 0.3
v -0.2 0 0
v -0.2 0 -0.8
v -0.2 0.1 0.7
v -0.2 0.1 0.5
v -0.2 0.1 0.4
v -0.2 0.1 0.3
v -0.2 0.1 0
v -0.2 0.1 -0.8
v -0.1 0 0.8
v -0.1 0 0.7
v -0.1 0 0.5
v -0.1 0 0.4
v -0.1 0 -0.8
v -0.1 0 -0.9
v -0.1 0.1 0.8
v -0.1 0.1 0.7
v -0.1 0.1 0.5
v -0.1 0.1 0.4
v -0.1 0.1 -0.8
v -0.1 0.1 -0.9
v 0 0 0.9
v 0 0 0.8
v 0 0 -0.9
v 0 0 -1
v 0 0.1 0.9
v 0 0.1 0.8
v 0 0.1 -0.9
v 0 0.1 -1
v 0.1 0 0.9
v 0.1 0 0.8
v 0.1 0 -0.9
v 0.1 0 -1
v 0.1 0.1 0.9
v 0.1 0.1 0.8
v 0.1 0.1 -0.9
v 0.1 0.1 -1
v 0.2 0 0.8
v 0.2 0 0.7
v 0.2 0 0.5
v 0.2 0 0.4
v 0.2 0 -0.8
v 0.2 0 -0.9
v 0.2 0.1 0.8
v 0.2 0.1 0.7
v 0.2 0.1 0.5
v 0.2 0.1 0.4
v 0.2 0.1 -0.8
v 0.2 0.1 -0.9
v 0.3 0 0.7
v 0.3 0 0.5
v 0.3 0 0.4
v 0.3 0 0.3
v 0.3 0 0
v 0.3 0 -0.8
v 0.3 0.1 0.7
v 0.3 0.1 0.5
v 0.3 0.1 0.4
v 0.3 0.1 0.3
v 0.3 0.1 0
v 0.3 0.1 -0.8
v 0.4 0 0.1
v 0.4 0 0
v 0.4 0.1 0.1
v 0.4 0.1 0
v 0.5 0 0.2
v 0.5 0 0.1
v 0.5 0.1 0.2
v 0.5 0.1 0.1
v 0.6 0 0.3
v 0.6 0 0.2
v 0.6 0.1 0.3
v 0.6 0.1 0.2
v 0 0 0.9
v 0 0.1 0.9
v 0.1 0 0.9
v 0.1 0.1 0.9
v -0.1 0 0.8
v -0.1 0.1 0.8
v 0 0 0.8
v 0 0.1 0.8
v 0.1 0 0.8
v 0.1 0.1 0.8
v 0.2 0 0.8
v 0.2 0.1 0.8
v -0.2 0 0.7
v -0.2 0.1 0.7
v -0.1 0 0.7
v -0.1 0.1 0.7
v 0.2 0 0.7
v 0.2 0.1 0.7
v 0.3 0 0.7
v 0.3 0.1 0.7
v -0.2 0 0.4
v -0.2 0.1 0.4
v -0.1 0 0.4
v -0.1 0.1 0.4
v 0.2 0 0.4
v 0.2 0.1 0.4
v 0.3 0 0.4
v 0.3 0.1 0.4
v -0.5 0 0.3
v -0.5 0.1 0.3
v -0.2 0 0.3
v -0.2 0.1 0.3
v 0.3 0 0.3
v 0.3 0.1 0.3
v 0.6 0 0.3
v 0.6 0.1 0.3
v -0.2 0 0.5
v -0.2 0.1 0.5
v -0.1 0 0.5
v -0.1 0.1 0.5
v 0.2 0 0.5
v 0.2 0.1 0.5
v 0.3 0 0.5
v 0.3 0.1 0.5
v -0.5 0 0.2
v -0.5 0.1 0.2
v -0.4 0 0.2
v -0.4 0.1 0.2
v 0.5 0 0.2
v 0.5 0.1 0.2
v 0.6 0 0.2
v 0.6 0.1 0.2
v -0.4 0 0.1
v -0.4 0.1 0.1
v -0.3 0 0.1
v -0.3 0.1 0.1
v 0.4 0 0.1
v 0.4 0.1 0.1
v 0.5 0 0.1
v 0.5 0.1 0.1
v -0.3 0 0
v -0.3 0.1 0
v -0.2 0 0
v -0.2 0.1 0
v 0.3 0 0
v 0.3 0.1 0
v 0.4 0 0
v 0.4 0.1 0
v -0.2 0 -0.8
v -0.2 0.1 -0.8
v -0.1 0 -0.8
v -0.1 0.1 -0.8
v 0.2 0 -0.8
v 0.2 0.1 -0.8
v 0.3 0 -0.8
v 0.3 0.1 -0.8
v -0.1 0 -0.9
v -0.1 0.1 -0.9
v 0 0 -0.9
v 0 0.1 -0.9
v 0.1 0 -0.9
v 0.1 0.1 -0.9
v 0.2 0 -0.9
v 0.2 0.1 -0.9
v 0 0 -1
v 0 0.1 -1
v 0.1 0 -1
v 0.1 0.1 -1
v 0 0 0.9
v 0.1 0 0.9
v -0.1 0 0.8
v 0 0 0.8
v 0.1 0 0.8
v 0.2 0 0.8
v -0.2 0 0.7
v -0.1 0 0.7
v 0 0 0.7
v 0.1 0 0.7
v 0.2 0 0.7
v 0.3 0 0.7
v -0.2 0 0.5
v -0.1 0 0.5
v 0 0 0.5
v 0.1 0 0.5
v 0.2 0 0.5
v 0.3 0 0.5
v -0.2 0 0.4
v -0.1 0 0.4
v 0.2 0 0.4
v 0.3 0 0.4
v -0.5 0 0.3
v -0.2 0 0.3
v -0.1 0 0.3
v 0 0 0.3
v 0.1 0 0.3
v 0.2 0 0.3
v 0.3 0 0.3
v 0.6 0 0.3
v -0.5 0 0.2
v -0.4 0 0.2
v -0.3 0 0.2
v -0.2 0 0.2
v 0.3 0 0.2
v 0.4 0 0.2
v 0.5 0 0.2
v 0.6 0 0.2
v -0.4 0 0.1
v -0.3 0 0.1
v -0.2 0 0.1
v 0.3 0 0.1
v 0.4 0 0.1
v 0.5 0 0.1
v -0.3 0 0
v -0.2 0 0
v 0.3 0 0
v 0.4 0 0
v -0.1 0 -0.6
v 0 0 -0.6
v 0.1 0 -0.6
v 0.2 0 -0.6
v -0.1 0 -0.7
v 0 0 -0.7
v 0.1 0 -0.7
v 0.2 0 -0.7
v -0.2 0 -0.8
v -0.1 0 -0.8
v 0 0 -0.8
v 0.1 0 -0.8
v 0.2 0 -0.8
v 0.3 0 -0.8
v -0.1 0 -0.9
v 0 0 -0.9
v 0.1 0 -0.9
v 0.2 0 -0.9
v 0 0 -1
v 0.1 0 -1
v 0 0.1 0.9
v 0.1 0.1 0.9
v -0.1 0.1 0.8
v 0 0.1 0.8
v 0.1 0.1 0.8
v 0.2 0.1 0.8
v -0.2 0.1 0.7
v -0.1 0.1 0.7
v 0 0.1 0.7
v 0.1 0.1 0.7
v 0.2 0.1 0.7
v 0.3 0.1 0.7
v -0.2 0.1 0.5
v -0.1 0.1 0.5
v 0 0.1 0.5
v 0.1 0.1 0.5
v 0.2 0.1 0.5
v 0.3 0.1 0.5
v -0.2 0.1 0.4
v -0.1 0.1 0.4
v 0.2 0.1 0.4
v 0.3 0.1 0.4
v -0.5 0.1 0.3
v -0.2 0.1 0.3
v -0.1 0.1 0.3
v 0 0.1 0.3
v 0.1 0.1 0.3
v 0.2 0.1 0.3
v 0.3 0.1 0.3
v 0.6 0.1 0.3
v -0.5 0.1 0.2
v -0.4 0.1 0.2
v -0.3 0.1 0.2
v -0.2 0.1 0.2
v 0.3 0.1 0.2
v 0.4 0.1 0.2
v 0.5 0.1 0.2
v 0.6 0.1 0.2
v -0.4 0.1 0.1
v -0.3 0.1 0.1
v -0.2 0.1 0.1
v 0.3 0.1 0.1
v 0.4 0.1 0.1
v 0.5 0.1 0.1
v -0.3 0.1 0
v -0.2 0.1 0
v 0.3 0.1 0
v 0.4 0.1 0
v -0.1 0.1 -0.6
v 0 0.1 -0.6
v 0.1 0.1 -0.6
v 0.2 0.1 -0.6
v -0.1 0.1 -0.7
v 0 0.1 -0.7
v 0.1 0.1 -0.7
v 0.2 0.1 -0.7
v -0.2 0.1 -0.8
v -0.1 0.1 -0.8
v 0 0.1 -0.8
v 0.1 0.1 -0.8
v 0.2 0.1 -0.8
v 0.3 0.1 -0.8
v -0.1 0.1 -0.9
v 0 0.1 -0.9
v 0.1 0.1 -0.9
v 0.2 0.1 -0.9
v 0 0.1 -1
v 0.1 0.1 -1

# faces
f 3/6/1 2/6/1 1/6/1
f 4/6/1 2/6/1 3/6/1
f 7/6/1 6/6/1 5/6/1
f 8/6/1 6/6/1 7/6/1
f 11/6/1 10/6/1 9/6/1
f 12/6/1 10/6/1 11/6/1
f 19/3/1 14/3/1 13/3/1
f 20/3/1 14/3/1 19/3/1
f 21/6/1 16/6/1 15/6/1
f 22/6/1 16/6/1 21/6/1
f 23/6/1 18/6/1 17/6/1
f 24/6/1 18/6/1 23/6/1
f 31/3/1 26/3/1 25/3/1
f 32/3/1 26/3/1 31/3/1
f 33/6/1 28/6/1 27/6/1
f 34/6/1 28/6/1 33/6/1
f 35/6/1 30/6/1 29/6/1
f 36/6/1 30/6/1 35/6/1
f 41/3/1 38/3/1 37/3/1
f 42/3/1 38/3/1 41/3/1
f 43/6/1 40/6/1 39/6/1
f 44/6/1 40/6/1 43/6/1
f 45/3/2 46/3/2 49/3/2
f 49/3/2 46/3/2 50/3/2
f 47/6/2 48/6/2 51/6/2
f 51/6/2 48/6/2 52/6/2
f 53/3/2 54/3/2 59/3/2
f 59/3/2 54/3/2 60/3/2
f 55/6/2 56/6/2 61/6/2
f 61/6/2 56/6/2 62/6/2
f 57/6/2 58/6/2 63/6/2
f 63/6/2 58/6/2 64/6/2
f 65/3/2 66/3/2 71/3/2
f 71/3/2 66/3/2 72/3/2
f 67/6/2 68/6/2 73/6/2
f 73/6/2 68/6/2 74/6/2
f 69/6/2 70/6/2 75/6/2
f 75/6/2 70/6/2 76/6/2
f 77/6/2 78/6/2 79/6/2
f 79/6/2 78/6/2 80/6/2
f 81/6/2 82/6/2 83/6/2
f 83/6/2 82/6/2 84/6/2
f 85/6/2 86/6/2 87/6/2
f 87/6/2 86/6/2 88/6/2
f 91/3/3 90/3/3 89/3/3
f 92/3/3 90/3/3 91/3/3
f 95/3/3 94/3/3 93/3/3
f 96/3/3 94/3/3 95/3/3
f 99/3/3 98/3/3 97/3/3
f 100/3/3 98/3/3 99/3/3
f 103/3/3 102/3/3 101/3/3
f 104/3/3 102/3/3 103/3/3
f 107/3/3 106/3/3 105/3/3
f 108/3/3 106/3/3 107/3/3
f 111/6/3 110/6/3 109/6/3
f 112/6/3 110/6/3 111/6/3
f 115/6/3 114/6/3 113/6/3
f 116/6/3 114/6/3 115/6/3
f 119/6/3 118/6/3 117/6/3
f 120/6/3 118/6/3 119/6/3
f 123/6/3 122/6/3 121/6/3
f 124/6/3 122/6/3 123/6/3
f 125/3/4 126/3/4 127/3/4
f 127/3/4 126/3/4 128/3/4
f 129/3/4 130/3/4 131/3/4
f 131/3/4 130/3/4 132/3/4
f 133/6/4 134/6/4 135/6/4
f 135/6/4 134/6/4 136/6/4
f 137/6/4 138/6/4 139/6/4
f 139/6/4 138/6/4 140/6/4
f 141/6/4 142/6/4 143/6/4
f 143/6/4 142/6/4 144/6/4
f 145/6/4 146/6/4 147/6/4
f 147/6/4 146/6/4 148/6/4
f 149/6/4 150/6/4 151/6/4
f 151/6/4 150/6/4 152/6/4
f 153/6/4 154/6/4 155/6/4
f 155/6/4 154/6/4 156/6/4
f 157/6/4 158/6/4 159/6/4
f 159/6/4 158/6/4 160/6/4
f 161/6/4 162/6/4 163/6/4
f 163/6/4 162/6/4 164/6/4
f 165/6/4 166/6/4 167/6/4
f 167/6/4 166/6/4 168/6/4
f 169/6/4 170/6/4 171/6/4
f 171/6/4 170/6/4 172/6/4
f 173/6/4 174/6/4 175/6/4
f 175/6/4 174/6/4 176/6/4
f 180/3/5 178/3/5 177/3/5
f 181/3/5 178/3/5 180/3/5
f 184/3/5 180/3/5 179/3/5
f 185/2/5 181/2/5 180/2/5
f 185/3/5 180/3/5 184/3/5
f 186/3/5 182/3/5 181/3/5
f 186/2/5 181/2/5 185/2/5
f 187/3/5 182/3/5 186/3/5
f 189/3/5 184/3/5 183/3/5
f 190/1/5 185/1/5 184/1/5
f 190/3/5 184/3/5 189/3/5
f 191/2/5 186/2/5 185/2/5
f 191/1/5 185/1/5 190/1/5
f 192/1/5 187/1/5 186/1/5
f 192/2/5 186/2/5 191/2/5
f 193/3/5 188/3/5 187/3/5
f 193/1/5 187/1/5 192/1/5
f 194/3/5 188/3/5 193/3/5
f 196/6/5 192/6/5 191/6/5
f 196/6/5 193/6/5 192/6/5
f 196/6/5 191/6/5 190/6/5
f 197/6/5 193/6/5 196/6/5
f 200/6/5 196/6/5 195/6/5
f 200/6/5 198/6/5 197/6/5
f 200/6/5 197/6/5 196/6/5
f 201/6/5 198/6/5 200/6/5
f 202/6/5 198/6/5 201/6/5
f 203/6/5 198/6/5 202/6/5
f 204/6/5 198/6/5 203/6/5
f 205/6/5 198/6/5 204/6/5
f 207/6/5 200/6/5 199/6/5
f 207/6/5 201/6/5 200/6/5
f 208/6/5 201/6/5 207/6/5
f 209/6/5 201/6/5 208/6/5
f 210/6/5 201/6/5 209/6/5
f 211/6/5 205/6/5 204/6/5
f 211/6/5 206/6/5 205/6/5
f 212/6/5 206/6/5 211/6/5
f 213/6/5 206/6/5 212/6/5
f 214/6/5 206/6/5 213/6/5
f 215/6/5 209/6/5 208/6/5
f 216/4/5 210/4/5 209/4/5
f 216/6/5 209/6/5 215/6/5
f 217/6/5 201/6/5 210/6/5
f 217/4/5 210/4/5 216/4/5
f 218/6/5 211/6/5 204/6/5
f 218/4/5 212/4/5 211/4/5
f 219/6/5 213/6/5 212/6/5
f 219/4/5 212/4/5 218/4/5
f 220/6/5 213/6/5 219/6/5
f 221/6/5 217/6/5 216/6/5
f 222/6/5 201/6/5 217/6/5
f 222/6/5 217/6/5 221/6/5
f 223/6/5 218/6/5 204/6/5
f 223/6/5 219/6/5 218/6/5
f 224/6/5 219/6/5 223/6/5
f 225/5/5 202/5/5 201/5/5
f 225/6/5 201/6/5 222/6/5
f 226/4/5 203/4/5 202/4/5
f 226/5/5 202/5/5 225/5/5
f 227/5/5 204/5/5 203/5/5
f 227/4/5 203/4/5 226/4/5
f 228/6/5 223/6/5 204/6/5
f 228/5/5 204/5/5 227/5/5
f 229/6/5 226/6/5 225/6/5
f 229/6/5 225/6/5 222/6/5
f 229/6/5 228/6/5 227/6/5
f 229/6/5 227/6/5 226/6/5
f 230/6/5 228/6/5 229/6/5
f 231/6/5 228/6/5 230/6/5
f 232/6/5 223/6/5 228/6/5
f 232/6/5 228/6/5 231/6/5
f 233/6/5 229/6/5 222/6/5
f 234/5/5 230/5/5 229/5/5
f 234/6/5 229/6/5 233/6/5
f 235/4/5 231/4/5 230/4/5
f 235/5/5 230/5/5 234/5/5
f 236/5/5 232/5/5 231/5/5
f 236/4/5 231/4/5 235/4/5
f 237/6/5 223/6/5 232/6/5
f 237/5/5 232/5/5 236/5/5
f 238/6/5 223/6/5 237/6/5
f 239/6/5 235/6/5 234/6/5
f 240/4/5 236/4/5 235/4/5
f 240/6/5 235/6/5 239/6/5
f 241/6/5 237/6/5 236/6/5
f 241/4/5 236/4/5 240/4/5
f 242/6/5 237/6/5 241/6/5
f 243/6/5 241/6/5 240/6/5
f 244/6/5 241/6/5 243/6/5
f 245/3/6 246/3/6 248/3/6
f 248/3/6 246/3/6 249/3/6
f 247/3/6 248/3/6 252/3/6
f 248/2/6 249/2/6 253/2/6
f 252/3/6 248/3/6 253/3/6
f 249/3/6 250/3/6 254/3/6
f 253/2/6 249/2/6 254/2/6
f 254/3/6 250/3/6 255/3/6
f 251/3/6 252/3/6 257/3/6
f 252/1/6 253/1/6 258/1/6
f 257/3/6 252/3/6 258/3/6
f 253/2/6 254/2/6 259/2/6
f 258/1/6 253/1/6 259/1/6
f 254/1/6 255/1/6 260/1/6
f 259/2/6 254/2/6 260/2/6
f 255/3/6 256/3/6 261/3/6
f 260/1/6 255/1/6 261/1/6
f 261/3/6 256/3/6 262/3/6
f 259/6/6 260/6/6 264/6/6
f 260/6/6 261/6/6 264/6/6
f 258/6/6 259/6/6 264/6/6
f 264/6/6 261/6/6 265/6/6
f 263/6/6 264/6/6 268/6/6
f 265/6/6 266/6/6 268/6/6
f 264/6/6 265/6/6 268/6/6
f 268/6/6 266/6/6 269/6/6
f 269/6/6 266/6/6 270/6/6
f 270/6/6 266/6/6 271/6/6
f 271/6/6 266/6/6 272/6/6
f 272/6/6 266/6/6 273/6/6
f 267/6/6 268/6/6 275/6/6
f 268/6/6 269/6/6 275/6/6
f 275/6/6 269/6/6 276/6/6
f 276/6/6 269/6/6 277/6/6
f 277/6/6 269/6/6 278/6/6
f 272/6/6 273/6/6 279/6/6
f 273/6/6 274/6/6 279/6/6
f 279/6/6 274/6/6 280/6/6
f 280/6/6 274/6/6 281/6/6
f 281/6/6 274/6/6 282/6/6
f 276/6/6 277/6/6 283/6/6
f 277/4/6 278/4/6 284/4/6
f 283/6/6 277/6/6 284/6/6
f 278/6/6 269/6/6 285/6/6
f 284/4/6 278/4/6 285/4/6
f 272/6/6 279/6/6 286/6/6
f 279/4/6 280/4/6 286/4/6
f 280/6/6 281/6/6 287/6/6
f 286/4/6 280/4/6 287/4/6
f 287/6/6 281/6/6 288/6/6
f 284/6/6 285/6/6 289/6/6
f 285/6/6 269/6/6 290/6/6
f 289/6/6 285/6/6 290/6/6
f 272/6/6 286/6/6 291/6/6
f 286/6/6 287/6/6 291/6/6
f 291/6/6 287/6/6 292/6/6
f 269/5/6 270/5/6 293/5/6
f 290/6/6 269/6/6 293/6/6
f 270/4/6 271/4/6 294/4/6
f 293/5/6 270/5/6 294/5/6
f 271/5/6 272/5/6 295/5/6
f 294/4/6 271/4/6 295/4/6
f 272/6/6 291/6/6 296/6/6
f 295/5/6 272/5/6 296/5/6
f 293/6/6 294/6/6 297/6/6
f 290/6/6 293/6/6 297/6/6
f 295/6/6 296/6/6 297/6/6
f 294/6/6 295/6/6 297/6/6
f 297/6/6 296/6/6 298/6/6
f 298/6/6 296/6/6 299/6/6
f 296/6/6 291/6/6 300/6/6
f 299/6/6 296/6/6 300/6/6
f 290/6/6 297/6/6 301/6/6
f 297/5/6 298/5/6 302/5/6
f 301/6/6 297/6/6 302/6/6
f 298/4/6 299/4/6 303/4/6
f 302/5/6 298/5/6 303/5/6
f 299/5/6 300/5/6 304/5/6
f 303/4/6 299/4/6 304/4/6
f 300/6/6 291/6/6 305/6/6
f 304/5/6 300/5/6 305/5/6
f 305/6/6 291/6/6 306/6/6
f 302/6/6 303/6/6 307/6/6
f 303/4/6 304/4/6 308/4/6
f 307/6/6 303/6/6 308/6/6
f 304/6/6 305/6/6 309/6/6
f 308/4/6 304/4/6 309/4/6
f 309/6/6 305/6/6 310/6/6
f 308/6/6 309/6/6 311/6/6
f 311/6/6 309/6/6 312/6/6
