# MagicaVoxel @ Ephtracy

# group
o 

# material
mtllib enemy_2.mtl
usemtl palette

# normals
vn -1 0 0
vn 1 0 0
vn 0 0 1
vn 0 0 -1
vn 0 -1 0
vn 0 1 0

# texcoords
vt 0.158203 0.5
vt 0.689453 0.5
vt 0.693359 0.5
vt 0.697266 0.5
vt 0.837891 0.5
vt 0.841797 0.5
vt 0.994141 0.5

# verts
v -1 -0.1 0.9
v -1 -0.1 -0.2
v -1 0 0.9
v -1 0 -0.2
v -1 0.1 0.9
v -1 0.1 -0.2
v -0.9 -0.1 1
v -0.9 -0.1 0.9
v -0.9 -0.1 -0.2
v -0.9 -0.1 -0.4
v -0.9 0 1
v -0.9 0 0.9
v -0.9 0 -0.2
v -0.9 0 -0.4
v -0.9 0.1 1
v -0.9 0.1 0.9
v -0.9 0.1 -0.2
v -0.9 0.1 -0.4
v -0.8 -0.1 1.1
v -0.8 -0.1 1
v -0.8 -0.1 -0.4
v -0.8 -0.1 -0.6
v -0.8 0 1
v -0.8 0 -0.4
v -0.8 0 -0.6
v -0.8 0.1 1.1
v -0.8 0.1 1
v -0.8 0.1 -0.4
v -0.8 0.1 -0.6
v -0.7 -0.1 1.2
v -0.7 -0.1 1.1
v -0.7 -0.1 -0.6
v -0.7 -0.1 -0.8
v -0.7 0 -0.6
v -0.7 0 -0.8
v -0.7 0.1 1.2
v -0.7 0.1 1.1
v -0.7 0.1 -0.6
v -0.7 0.1 -0.8
v -0.6 -0.1 -0.8
v -0.6 -0.1 -1
v -0.6 0 -0.8
v -0.6 0 -1
v -0.6 0.1 -0.8
v -0.6 0.1 -1
v -0.5 -0.1 -1
v -0.5 -0.1 -1.1
v -0.5 0 -1
v -0.5 0 -1.1
v -0.5 0.1 -1
v -0.5 0.1 -1.1
v -0.4 -0.1 -1.1
v -0.4 -0.1 -1.3
v -0.4 0 -1.1
v -0.4 0 -1.3
v -0.4 0.1 -1.1
v -0.4 0.1 -1.3
v -0.2 -0.1 0.9
v -0.2 -0.1 0.6
v -0.2 -0.1 0.1
v -0.2 -0.1 -0.3
v -0.2 0 0.9
v -0.2 0 0.6
v -0.2 0 0.1
v -0.2 0 -0.3
v -0.2 0.1 0.9
v -0.2 0.1 0.6
v -0.2 0.1 0.1
v -0.2 0.1 -0.3
v -0.1 -0.1 1
v -0.1 -0.1 0.9
v -0.1 -0.1 -0.3
v -0.1 -0.1 -0.4
v -0.1 0 1
v -0.1 0 0.9
v -0.1 0 -0.3
v -0.1 0 -0.4
v -0.1 0.1 1
v -0.1 0.1 0.9
v -0.1 0.1 -0.3
v -0.1 0.1 -0.4
v 0.4 -0.1 0.9
v 0.4 -0.1 0.6
v 0.4 -0.1 0.1
v 0.4 -0.1 -1.3
v 0.4 0 0.9
v 0.4 0 0.6
v 0.4 0 0.1
v 0.4 0 -1.3
v 0.4 0.1 0.9
v 0.4 0.1 0.6
v 0.4 0.1 0.1
v 0.4 0.1 -1.3
v 0.5 -0.1 1
v 0.5 -0.1 0.9
v 0.5 0 1
v 0.5 0 0.9
v 0.5 0.1 1
v 0.5 0.1 0.9
v 0.6 -0.1 1.1
v 0.6 -0.1 1
v 0.6 0 1
v 0.6 0.1 1.1
v 0.6 0.1 1
v 0.7 -0.1 1.2
v 0.7 -0.1 1.1
v 0.7 0.1 1.2
v 0.7 0.1 1.1
v -0.6 -0.1 1.2
v -0.6 -0.1 1.1
v -0.6 0.1 1.2
v -0.6 0.1 1.1
v -0.5 -0.1 1.1
v -0.5 -0.1 1
v -0.5 0 1
v -0.5 0.1 1.1
v -0.5 0.1 1
v -0.4 -0.1 1
v -0.4 -0.1 0.9
v -0.4 0 1
v -0.4 0 0.9
v -0.4 0.1 1
v -0.4 0.1 0.9
v -0.3 -0.1 0.9
v -0.3 -0.1 0.6
v -0.3 -0.1 0.1
v -0.3 -0.1 -1.3
v -0.3 0 0.9
v -0.3 0 0.6
v -0.3 0 0.1
v -0.3 0 -1.3
v -0.3 0.1 0.9
v -0.3 0.1 0.6
v -0.3 0.1 0.1
v -0.3 0.1 -1.3
v 0.2 -0.1 1
v 0.2 -0.1 0.9
v 0.2 -0.1 -0.3
v 0.2 -0.1 -0.4
v 0.2 0 1
v 0.2 0 0.9
v 0.2 0 -0.3
v 0.2 0 -0.4
v 0.2 0.1 1
v 0.2 0.1 0.9
v 0.2 0.1 -0.3
v 0.2 0.1 -0.4
v 0.3 -0.1 0.9
v 0.3 -0.1 0.6
v 0.3 -0.1 0.1
v 0.3 -0.1 -0.3
v 0.3 0 0.9
v 0.3 0 0.6
v 0.3 0 0.1
v 0.3 0 -0.3
v 0.3 0.1 0.9
v 0.3 0.1 0.6
v 0.3 0.1 0.1
v 0.3 0.1 -0.3
v 0.5 -0.1 -1.1
v 0.5 -0.1 -1.3
v 0.5 0 -1.1
v 0.5 0 -1.3
v 0.5 0.1 -1.1
v 0.5 0.1 -1.3
v 0.6 -0.1 -1
v 0.6 -0.1 -1.1
v 0.6 0 -1
v 0.6 0 -1.1
v 0.6 0.1 -1
v 0.6 0.1 -1.1
v 0.7 -0.1 -0.8
v 0.7 -0.1 -1
v 0.7 0 -0.8
v 0.7 0 -1
v 0.7 0.1 -0.8
v 0.7 0.1 -1
v 0.8 -0.1 1.2
v 0.8 -0.1 1.1
v 0.8 -0.1 -0.6
v 0.8 -0.1 -0.8
v 0.8 0 -0.6
v 0.8 0 -0.8
v 0.8 0.1 1.2
v 0.8 0.1 1.1
v 0.8 0.1 -0.6
v 0.8 0.1 -0.8
v 0.9 -0.1 1.1
v 0.9 -0.1 1
v 0.9 -0.1 -0.4
v 0.9 -0.1 -0.6
v 0.9 0 1
v 0.9 0 -0.4
v 0.9 0 -0.6
v 0.9 0.1 1.1
v 0.9 0.1 1
v 0.9 0.1 -0.4
v 0.9 0.1 -0.6
v 1 -0.1 1
v 1 -0.1 0.9
v 1 -0.1 -0.2
v 1 -0.1 -0.4
v 1 0 1
v 1 0 0.9
v 1 0 -0.2
v 1 0 -0.4
v 1 0.1 1
v 1 0.1 0.9
v 1 0.1 -0.2
v 1 0.1 -0.4
v 1.1 -0.1 0.9
v 1.1 -0.1 -0.2
v 1.1 0 0.9
v 1.1 0 -0.2
v 1.1 0.1 0.9
v 1.1 0.1 -0.2
v -0.7 -0.1 1.2
v -0.7 0.1 1.2
v -0.6 -0.1 1.2
v -0.6 0.1 1.2
v 0.7 -0.1 1.2
v 0.7 0.1 1.2
v 0.8 -0.1 1.2
v 0.8 0.1 1.2
v -0.8 -0.1 1.1
v -0.8 0.1 1.1
v -0.7 -0.1 1.1
v -0.7 0.1 1.1
v -0.6 -0.1 1.1
v -0.6 0.1 1.1
v -0.5 -0.1 1.1
v -0.5 0.1 1.1
v 0.6 -0.1 1.1
v 0.6 0.1 1.1
v 0.7 -0.1 1.1
v 0.7 0.1 1.1
v 0.8 -0.1 1.1
v 0.8 0.1 1.1
v 0.9 -0.1 1.1
v 0.9 0.1 1.1
v -0.9 -0.1 1
v -0.9 0 1
v -0.9 0.1 1
v -0.8 -0.1 1
v -0.8 0 1
v -0.8 0.1 1
v -0.5 -0.1 1
v -0.5 0 1
v -0.5 0.1 1
v -0.4 -0.1 1
v -0.4 0 1
v -0.4 0.1 1
v -0.1 -0.1 1
v -0.1 0 1
v -0.1 0.1 1
v 0.2 -0.1 1
v 0.2 0 1
v 0.2 0.1 1
v 0.5 -0.1 1
v 0.5 0 1
v 0.5 0.1 1
v 0.6 -0.1 1
v 0.6 0 1
v 0.6 0.1 1
v 0.9 -0.1 1
v 0.9 0 1
v 0.9 0.1 1
v 1 -0.1 1
v 1 0 1
v 1 0.1 1
v -1 -0.1 0.9
v -1 0 0.9
v -1 0.1 0.9
v -0.9 -0.1 0.9
v -0.9 0 0.9
v -0.9 0.1 0.9
v -0.4 -0.1 0.9
v -0.4 0 0.9
v -0.4 0.1 0.9
v -0.3 -0.1 0.9
v -0.3 0 0.9
v -0.3 0.1 0.9
v -0.2 -0.1 0.9
v -0.2 0 0.9
v -0.2 0.1 0.9
v -0.1 -0.1 0.9
v -0.1 0 0.9
v -0.1 0.1 0.9
v 0.2 -0.1 0.9
v 0.2 0 0.9
v 0.2 0.1 0.9
v 0.3 -0.1 0.9
v 0.3 0 0.9
v 0.3 0.1 0.9
v 0.4 -0.1 0.9
v 0.4 0 0.9
v 0.4 0.1 0.9
v 0.5 -0.1 0.9
v 0.5 0 0.9
v 0.5 0.1 0.9
v 1 -0.1 0.9
v 1 0 0.9
v 1 0.1 0.9
v 1.1 -0.1 0.9
v 1.1 0 0.9
v 1.1 0.1 0.9
v -0.3 -0.1 0.6
v -0.3 0 0.6
v -0.3 0.1 0.6
v -0.2 -0.1 0.6
v -0.2 0 0.6
v -0.2 0.1 0.6
v 0.3 -0.1 0.6
v 0.3 0 0.6
v 0.3 0.1 0.6
v 0.4 -0.1 0.6
v 0.4 0 0.6
v 0.4 0.1 0.6
v -0.3 -0.1 0.1
v -0.3 0 0.1
v -0.3 0.1 0.1
v -0.2 -0.1 0.1
v -0.2 0 0.1
v -0.2 0.1 0.1
v 0.3 -0.1 0.1
v 0.3 0 0.1
v 0.3 0.1 0.1
v 0.4 -0.1 0.1
v 0.4 0 0.1
v 0.4 0.1 0.1
v -1 -0.1 -0.2
v -1 0 -0.2
v -1 0.1 -0.2
v -0.9 -0.1 -0.2
v -0.9 0 -0.2
v -0.9 0.1 -0.2
v 1 -0.1 -0.2
v 1 0 -0.2
v 1 0.1 -0.2
v 1.1 -0.1 -0.2
v 1.1 0 -0.2
v 1.1 0.1 -0.2
v -0.2 -0.1 -0.3
v -0.2 0 -0.3
v -0.2 0.1 -0.3
v -0.1 -0.1 -0.3
v -0.1 0 -0.3
v -0.1 0.1 -0.3
v 0.2 -0.1 -0.3
v 0.2 0 -0.3
v 0.2 0.1 -0.3
v 0.3 -0.1 -0.3
v 0.3 0 -0.3
v 0.3 0.1 -0.3
v -0.9 -0.1 -0.4
v -0.9 0 -0.4
v -0.9 0.1 -0.4
v -0.8 -0.1 -0.4
v -0.8 0 -0.4
v -0.8 0.1 -0.4
v -0.1 -0.1 -0.4
v -0.1 0 -0.4
v -0.1 0.1 -0.4
v 0.2 -0.1 -0.4
v 0.2 0 -0.4
v 0.2 0.1 -0.4
v 0.9 -0.1 -0.4
v 0.9 0 -0.4
v 0.9 0.1 -0.4
v 1 -0.1 -0.4
v 1 0 -0.4
v 1 0.1 -0.4
v -0.8 -0.1 -0.6
v -0.8 0 -0.6
v -0.8 0.1 -0.6
v -0.7 -0.1 -0.6
v -0.7 0 -0.6
v -0.7 0.1 -0.6
v 0.8 -0.1 -0.6
v 0.8 0 -0.6
v 0.8 0.1 -0.6
v 0.9 -0.1 -0.6
v 0.9 0 -0.6
v 0.9 0.1 -0.6
v -0.7 -0.1 -0.8
v -0.7 0 -0.8
v -0.7 0.1 -0.8
v -0.6 -0.1 -0.8
v -0.6 0 -0.8
v -0.6 0.1 -0.8
v 0.7 -0.1 -0.8
v 0.7 0 -0.8
v 0.7 0.1 -0.8
v 0.8 -0.1 -0.8
v 0.8 0 -0.8
v 0.8 0.1 -0.8
v -0.6 -0.1 -1
v -0.6 0 -1
v -0.6 0.1 -1
v -0.5 -0.1 -1
v -0.5 0 -1
v -0.5 0.1 -1
v 0.6 -0.1 -1
v 0.6 0 -1
v 0.6 0.1 -1
v 0.7 -0.1 -1
v 0.7 0 -1
v 0.7 0.1 -1
v -0.5 -0.1 -1.1
v -0.5 0 -1.1
v -0.5 0.1 -1.1
v -0.4 -0.1 -1.1
v -0.4 0 -1.1
v -0.4 0.1 -1.1
v 0.5 -0.1 -1.1
v 0.5 0 -1.1
v 0.5 0.1 -1.1
v 0.6 -0.1 -1.1
v 0.6 0 -1.1
v 0.6 0.1 -1.1
v -0.4 -0.1 -1.3
v -0.4 0 -1.3
v -0.4 0.1 -1.3
v -0.3 -0.1 -1.3
v -0.3 0 -1.3
v -0.3 0.1 -1.3
v 0.4 -0.1 -1.3
v 0.4 0 -1.3
v 0.4 0.1 -1.3
v 0.5 -0.1 -1.3
v 0.5 0 -1.3
v 0.5 0.1 -1.3
v -0.7 -0.1 1.2
v -0.6 -0.1 1.2
v 0.7 -0.1 1.2
v 0.8 -0.1 1.2
v -0.8 -0.1 1.1
v -0.7 -0.1 1.1
v -0.6 -0.1 1.1
v -0.5 -0.1 1.1
v 0.6 -0.1 1.1
v 0.7 -0.1 1.1
v 0.8 -0.1 1.1
v 0.9 -0.1 1.1
v -0.9 -0.1 1
v -0.8 -0.1 1
v -0.5 -0.1 1
v -0.4 -0.1 1
v -0.1 -0.1 1
v 0.2 -0.1 1
v 0.5 -0.1 1
v 0.6 -0.1 1
v 0.9 -0.1 1
v 1 -0.1 1
v -1 -0.1 0.9
v -0.9 -0.1 0.9
v -0.4 -0.1 0.9
v -0.3 -0.1 0.9
v -0.2 -0.1 0.9
v -0.1 -0.1 0.9
v 0.2 -0.1 0.9
v 0.3 -0.1 0.9
v 0.4 -0.1 0.9
v 0.5 -0.1 0.9
v 1 -0.1 0.9
v 1.1 -0.1 0.9
v -0.3 -0.1 0.6
v -0.2 -0.1 0.6
v 0.3 -0.1 0.6
v 0.4 -0.1 0.6
v -0.3 -0.1 0.1
v -0.2 -0.1 0.1
v 0.3 -0.1 0.1
v 0.4 -0.1 0.1
v -1 -0.1 -0.2
v -0.9 -0.1 -0.2
v 1 -0.1 -0.2
v 1.1 -0.1 -0.2
v -0.2 -0.1 -0.3
v -0.1 -0.1 -0.3
v 0.2 -0.1 -0.3
v 0.3 -0.1 -0.3
v -0.9 -0.1 -0.4
v -0.8 -0.1 -0.4
v -0.1 -0.1 -0.4
v 0.2 -0.1 -0.4
v 0.9 -0.1 -0.4
v 1 -0.1 -0.4
v -0.8 -0.1 -0.6
v -0.7 -0.1 -0.6
v 0.8 -0.1 -0.6
v 0.9 -0.1 -0.6
v -0.7 -0.1 -0.8
v -0.6 -0.1 -0.8
v 0.7 -0.1 -0.8
v 0.8 -0.1 -0.8
v -0.6 -0.1 -1
v -0.5 -0.1 -1
v 0.6 -0.1 -1
v 0.7 -0.1 -1
v -0.5 -0.1 -1.1
v -0.4 -0.1 -1.1
v 0.5 -0.1 -1.1
v 0.6 -0.1 -1.1
v -0.4 -0.1 -1.3
v -0.3 -0.1 -1.3
v 0.4 -0.1 -1.3
v 0.5 -0.1 -1.3
v -0.7 0.1 1.2
v -0.6 0.1 1.2
v 0.7 0.1 1.2
v 0.8 0.1 1.2
v -0.8 0.1 1.1
v -0.7 0.1 1.1
v -0.6 0.1 1.1
v -0.5 0.1 1.1
v 0.6 0.1 1.1
v 0.7 0.1 1.1
v 0.8 0.1 1.1
v 0.9 0.1 1.1
v -0.9 0.1 1
v -0.8 0.1 1
v -0.7 0.1 1
v -0.6 0.1 1
v -0.5 0.1 1
v -0.4 0.1 1
v -0.1 0.1 1
v 0.2 0.1 1
v 0.5 0.1 1
v 0.6 0.1 1
v 0.7 0.1 1
v 0.8 0.1 1
v 0.9 0.1 1
v 1 0.1 1
v -1 0.1 0.9
v -0.9 0.1 0.9
v -0.4 0.1 0.9
v -0.3 0.1 0.9
v -0.2 0.1 0.9
v -0.1 0.1 0.9
v 0 0.1 0.9
v 0.1 0.1 0.9
v 0.2 0.1 0.9
v 0.3 0.1 0.9
v 0.4 0.1 0.9
v 0.5 0.1 0.9
v 1 0.1 0.9
v 1.1 0.1 0.9
v -0.3 0.1 0.6
v -0.2 0.1 0.6
v 0.3 0.1 0.6
v 0.4 0.1 0.6
v -0.3 0.1 0.1
v -0.2 0.1 0.1
v 0.3 0.1 0.1
v 0.4 0.1 0.1
v -1 0.1 -0.2
v -0.9 0.1 -0.2
v -0.1 0.1 -0.2
v 0 0.1 -0.2
v 0.1 0.1 -0.2
v 0.2 0.1 -0.2
v 1 0.1 -0.2
v 1.1 0.1 -0.2
v -0.2 0.1 -0.3
v -0.1 0.1 -0.3
v 0 0.1 -0.3
v 0.1 0.1 -0.3
v 0.2 0.1 -0.3
v 0.3 0.1 -0.3
v -0.9 0.1 -0.4
v -0.8 0.1 -0.4
v -0.1 0.1 -0.4
v 0.2 0.1 -0.4
v 0.9 0.1 -0.4
v 1 0.1 -0.4
v -0.8 0.1 -0.6
v -0.7 0.1 -0.6
v 0.8 0.1 -0.6
v 0.9 0.1 -0.6
v -0.7 0.1 -0.8
v -0.6 0.1 -0.8
v 0.7 0.1 -0.8
v 0.8 0.1 -0.8
v -0.6 0.1 -1
v -0.5 0.1 -1
v 0.6 0.1 -1
v 0.7 0.1 -1
v -0.5 0.1 -1.1
v -0.4 0.1 -1.1
v 0.5 0.1 -1.1
v 0.6 0.1 -1.1
v -0.4 0.1 -1.3
v -0.3 0.1 -1.3
v 0.4 0.1 -1.3
v 0.5 0.1 -1.3

# faces
f 3/3/1 2/3/1 1/3/1
f 4/3/1 2/3/1 3/3/1
f 5/4/1 4/4/1 3/4/1
f 6/4/1 4/4/1 5/4/1
f 11/3/1 8/3/1 7/3/1
f 12/3/1 8/3/1 11/3/1
f 13/3/1 10/3/1 9/3/1
f 14/3/1 10/3/1 13/3/1
f 15/7/1 12/7/1 11/7/1
f 16/7/1 12/7/1 15/7/1
f 17/7/1 14/7/1 13/7/1
f 18/7/1 14/7/1 17/7/1
f 23/6/1 20/6/1 19/6/1
f 24/3/1 22/3/1 21/3/1
f 25/3/1 22/3/1 24/3/1
f 26/6/1 23/6/1 19/6/1
f 27/6/1 23/6/1 26/6/1
f 28/4/1 25/4/1 24/4/1
f 29/4/1 25/4/1 28/4/1
f 34/3/1 33/3/1 32/3/1
f 35/3/1 33/3/1 34/3/1
f 36/6/1 31/6/1 30/6/1
f 37/6/1 31/6/1 36/6/1
f 38/7/1 35/7/1 34/7/1
f 39/7/1 35/7/1 38/7/1
f 42/3/1 41/3/1 40/3/1
f 43/3/1 41/3/1 42/3/1
f 44/4/1 43/4/1 42/4/1
f 45/4/1 43/4/1 44/4/1
f 48/3/1 47/3/1 46/3/1
f 49/3/1 47/3/1 48/3/1
f 50/7/1 49/7/1 48/7/1
f 51/7/1 49/7/1 50/7/1
f 54/3/1 53/3/1 52/3/1
f 55/3/1 53/3/1 54/3/1
f 56/4/1 55/4/1 54/4/1
f 57/4/1 55/4/1 56/4/1
f 62/3/1 59/3/1 58/3/1
f 63/3/1 59/3/1 62/3/1
f 64/3/1 61/3/1 60/3/1
f 65/3/1 61/3/1 64/3/1
f 66/4/1 63/4/1 62/4/1
f 67/4/1 63/4/1 66/4/1
f 68/4/1 65/4/1 64/4/1
f 69/4/1 65/4/1 68/4/1
f 74/3/1 71/3/1 70/3/1
f 75/3/1 71/3/1 74/3/1
f 76/3/1 73/3/1 72/3/1
f 77/3/1 73/3/1 76/3/1
f 78/4/1 75/4/1 74/4/1
f 79/4/1 75/4/1 78/4/1
f 80/4/1 77/4/1 76/4/1
f 81/4/1 77/4/1 80/4/1
f 86/3/1 83/3/1 82/3/1
f 87/3/1 83/3/1 86/3/1
f 88/3/1 85/3/1 84/3/1
f 89/3/1 85/3/1 88/3/1
f 90/4/1 87/4/1 86/4/1
f 91/4/1 87/4/1 90/4/1
f 92/4/1 89/4/1 88/4/1
f 93/4/1 89/4/1 92/4/1
f 96/3/1 95/3/1 94/3/1
f 97/3/1 95/3/1 96/3/1
f 98/7/1 97/7/1 96/7/1
f 99/7/1 97/7/1 98/7/1
f 102/6/1 101/6/1 100/6/1
f 103/6/1 102/6/1 100/6/1
f 104/6/1 102/6/1 103/6/1
f 107/6/1 106/6/1 105/6/1
f 108/6/1 106/6/1 107/6/1
f 109/6/2 110/6/2 111/6/2
f 111/6/2 110/6/2 112/6/2
f 113/6/2 114/6/2 115/6/2
f 113/6/2 115/6/2 116/6/2
f 116/6/2 115/6/2 117/6/2
f 118/3/2 119/3/2 120/3/2
f 120/3/2 119/3/2 121/3/2
f 120/7/2 121/7/2 122/7/2
f 122/7/2 121/7/2 123/7/2
f 124/3/2 125/3/2 128/3/2
f 128/3/2 125/3/2 129/3/2
f 126/3/2 127/3/2 130/3/2
f 130/3/2 127/3/2 131/3/2
f 128/4/2 129/4/2 132/4/2
f 132/4/2 129/4/2 133/4/2
f 130/4/2 131/4/2 134/4/2
f 134/4/2 131/4/2 135/4/2
f 136/3/2 137/3/2 140/3/2
f 140/3/2 137/3/2 141/3/2
f 138/3/2 139/3/2 142/3/2
f 142/3/2 139/3/2 143/3/2
f 140/4/2 141/4/2 144/4/2
f 144/4/2 141/4/2 145/4/2
f 142/4/2 143/4/2 146/4/2
f 146/4/2 143/4/2 147/4/2
f 148/3/2 149/3/2 152/3/2
f 152/3/2 149/3/2 153/3/2
f 150/3/2 151/3/2 154/3/2
f 154/3/2 151/3/2 155/3/2
f 152/4/2 153/4/2 156/4/2
f 156/4/2 153/4/2 157/4/2
f 154/4/2 155/4/2 158/4/2
f 158/4/2 155/4/2 159/4/2
f 160/3/2 161/3/2 162/3/2
f 162/3/2 161/3/2 163/3/2
f 162/4/2 163/4/2 164/4/2
f 164/4/2 163/4/2 165/4/2
f 166/3/2 167/3/2 168/3/2
f 168/3/2 167/3/2 169/3/2
f 168/7/2 169/7/2 170/7/2
f 170/7/2 169/7/2 171/7/2
f 172/3/2 173/3/2 174/3/2
f 174/3/2 173/3/2 175/3/2
f 174/4/2 175/4/2 176/4/2
f 176/4/2 175/4/2 177/4/2
f 180/3/2 181/3/2 182/3/2
f 182/3/2 181/3/2 183/3/2
f 178/6/2 179/6/2 184/6/2
f 184/6/2 179/6/2 185/6/2
f 182/7/2 183/7/2 186/7/2
f 186/7/2 183/7/2 187/7/2
f 188/6/2 189/6/2 192/6/2
f 190/3/2 191/3/2 193/3/2
f 193/3/2 191/3/2 194/3/2
f 188/6/2 192/6/2 195/6/2
f 195/6/2 192/6/2 196/6/2
f 193/4/2 194/4/2 197/4/2
f 197/4/2 194/4/2 198/4/2
f 199/3/2 200/3/2 203/3/2
f 203/3/2 200/3/2 204/3/2
f 201/3/2 202/3/2 205/3/2
f 205/3/2 202/3/2 206/3/2
f 203/7/2 204/7/2 207/7/2
f 207/7/2 204/7/2 208/7/2
f 205/7/2 206/7/2 209/7/2
f 209/7/2 206/7/2 210/7/2
f 211/3/2 212/3/2 213/3/2
f 213/3/2 212/3/2 214/3/2
f 213/4/2 214/4/2 215/4/2
f 215/4/2 214/4/2 216/4/2
f 219/6/3 218/6/3 217/6/3
f 220/6/3 218/6/3 219/6/3
f 223/6/3 222/6/3 221/6/3
f 224/6/3 222/6/3 223/6/3
f 227/6/3 226/6/3 225/6/3
f 228/6/3 226/6/3 227/6/3
f 231/6/3 230/6/3 229/6/3
f 232/6/3 230/6/3 231/6/3
f 235/6/3 234/6/3 233/6/3
f 236/6/3 234/6/3 235/6/3
f 239/6/3 238/6/3 237/6/3
f 240/6/3 238/6/3 239/6/3
f 244/3/3 242/3/3 241/3/3
f 245/7/3 243/7/3 242/7/3
f 245/3/3 242/3/3 244/3/3
f 246/7/3 243/7/3 245/7/3
f 250/3/3 248/3/3 247/3/3
f 251/7/3 249/7/3 248/7/3
f 251/3/3 248/3/3 250/3/3
f 252/7/3 249/7/3 251/7/3
f 256/3/3 254/3/3 253/3/3
f 257/4/3 255/4/3 254/4/3
f 257/3/3 254/3/3 256/3/3
f 258/4/3 255/4/3 257/4/3
f 262/3/3 260/3/3 259/3/3
f 263/7/3 261/7/3 260/7/3
f 263/3/3 260/3/3 262/3/3
f 264/7/3 261/7/3 263/7/3
f 268/3/3 266/3/3 265/3/3
f 269/7/3 267/7/3 266/7/3
f 269/3/3 266/3/3 268/3/3
f 270/7/3 267/7/3 269/7/3
f 274/3/3 272/3/3 271/3/3
f 275/4/3 273/4/3 272/4/3
f 275/3/3 272/3/3 274/3/3
f 276/4/3 273/4/3 275/4/3
f 280/3/3 278/3/3 277/3/3
f 281/4/3 279/4/3 278/4/3
f 281/3/3 278/3/3 280/3/3
f 282/4/3 279/4/3 281/4/3
f 286/3/3 284/3/3 283/3/3
f 287/4/3 285/4/3 284/4/3
f 287/3/3 284/3/3 286/3/3
f 288/4/3 285/4/3 287/4/3
f 292/3/3 290/3/3 289/3/3
f 293/4/3 291/4/3 290/4/3
f 293/3/3 290/3/3 292/3/3
f 294/4/3 291/4/3 293/4/3
f 298/3/3 296/3/3 295/3/3
f 299/4/3 297/4/3 296/4/3
f 299/3/3 296/3/3 298/3/3
f 300/4/3 297/4/3 299/4/3
f 304/3/3 302/3/3 301/3/3
f 305/4/3 303/4/3 302/4/3
f 305/3/3 302/3/3 304/3/3
f 306/4/3 303/4/3 305/4/3
f 310/3/3 308/3/3 307/3/3
f 311/4/3 309/4/3 308/4/3
f 311/3/3 308/3/3 310/3/3
f 312/4/3 309/4/3 311/4/3
f 316/3/3 314/3/3 313/3/3
f 317/4/3 315/4/3 314/4/3
f 317/3/3 314/3/3 316/3/3
f 318/4/3 315/4/3 317/4/3
f 319/3/4 320/3/4 322/3/4
f 320/4/4 321/4/4 323/4/4
f 322/3/4 320/3/4 323/3/4
f 323/4/4 321/4/4 324/4/4
f 325/3/4 326/3/4 328/3/4
f 326/4/4 327/4/4 329/4/4
f 328/3/4 326/3/4 329/3/4
f 329/4/4 327/4/4 330/4/4
f 331/3/4 332/3/4 334/3/4
f 332/4/4 333/4/4 335/4/4
f 334/3/4 332/3/4 335/3/4
f 335/4/4 333/4/4 336/4/4
f 337/3/4 338/3/4 340/3/4
f 338/4/4 339/4/4 341/4/4
f 340/3/4 338/3/4 341/3/4
f 341/4/4 339/4/4 342/4/4
f 343/3/4 344/3/4 346/3/4
f 344/4/4 345/4/4 347/4/4
f 346/3/4 344/3/4 347/3/4
f 347/4/4 345/4/4 348/4/4
f 349/3/4 350/3/4 352/3/4
f 350/4/4 351/4/4 353/4/4
f 352/3/4 350/3/4 353/3/4
f 353/4/4 351/4/4 354/4/4
f 355/3/4 356/3/4 358/3/4
f 356/7/4 357/7/4 359/7/4
f 358/3/4 356/3/4 359/3/4
f 359/7/4 357/7/4 360/7/4
f 361/3/4 362/3/4 364/3/4
f 362/4/4 363/4/4 365/4/4
f 364/3/4 362/3/4 365/3/4
f 365/4/4 363/4/4 366/4/4
f 367/3/4 368/3/4 370/3/4
f 368/7/4 369/7/4 371/7/4
f 370/3/4 368/3/4 371/3/4
f 371/7/4 369/7/4 372/7/4
f 373/3/4 374/3/4 376/3/4
f 374/4/4 375/4/4 377/4/4
f 376/3/4 374/3/4 377/3/4
f 377/4/4 375/4/4 378/4/4
f 379/3/4 380/3/4 382/3/4
f 380/4/4 381/4/4 383/4/4
f 382/3/4 380/3/4 383/3/4
f 383/4/4 381/4/4 384/4/4
f 385/3/4 386/3/4 388/3/4
f 386/7/4 387/7/4 389/7/4
f 388/3/4 386/3/4 389/3/4
f 389/7/4 387/7/4 390/7/4
f 391/3/4 392/3/4 394/3/4
f 392/7/4 393/7/4 395/7/4
f 394/3/4 392/3/4 395/3/4
f 395/7/4 393/7/4 396/7/4
f 397/3/4 398/3/4 400/3/4
f 398/4/4 399/4/4 401/4/4
f 400/3/4 398/3/4 401/3/4
f 401/4/4 399/4/4 402/4/4
f 403/3/4 404/3/4 406/3/4
f 404/4/4 405/4/4 407/4/4
f 406/3/4 404/3/4 407/3/4
f 407/4/4 405/4/4 408/4/4
f 409/3/4 410/3/4 412/3/4
f 410/7/4 411/7/4 413/7/4
f 412/3/4 410/3/4 413/3/4
f 413/7/4 411/7/4 414/7/4
f 415/3/4 416/3/4 418/3/4
f 416/7/4 417/7/4 419/7/4
f 418/3/4 416/3/4 419/3/4
f 419/7/4 417/7/4 420/7/4
f 421/3/4 422/3/4 424/3/4
f 422/4/4 423/4/4 425/4/4
f 424/3/4 422/3/4 425/3/4
f 425/4/4 423/4/4 426/4/4
f 427/3/4 428/3/4 430/3/4
f 428/4/4 429/4/4 431/4/4
f 430/3/4 428/3/4 431/3/4
f 431/4/4 429/4/4 432/4/4
f 438/6/5 434/6/5 433/6/5
f 439/6/5 434/6/5 438/6/5
f 442/6/5 436/6/5 435/6/5
f 443/6/5 436/6/5 442/6/5
f 446/6/5 440/6/5 439/6/5
f 446/6/5 438/6/5 437/6/5
f 446/6/5 439/6/5 438/6/5
f 447/6/5 440/6/5 446/6/5
f 452/6/5 444/6/5 443/6/5
f 452/6/5 443/6/5 442/6/5
f 452/6/5 442/6/5 441/6/5
f 453/6/5 444/6/5 452/6/5
f 456/3/5 448/3/5 447/3/5
f 456/3/5 447/3/5 446/3/5
f 456/3/5 446/3/5 445/3/5
f 457/3/5 448/3/5 456/3/5
f 460/3/5 450/3/5 449/3/5
f 461/3/5 450/3/5 460/3/5
f 464/3/5 454/3/5 453/3/5
f 464/3/5 453/3/5 452/3/5
f 464/3/5 452/3/5 451/3/5
f 465/3/5 454/3/5 464/3/5
f 467/3/5 458/3/5 457/3/5
f 467/3/5 456/3/5 455/3/5
f 467/3/5 457/3/5 456/3/5
f 468/3/5 462/3/5 461/3/5
f 468/3/5 461/3/5 460/3/5
f 468/3/5 460/3/5 459/3/5
f 469/3/5 462/3/5 468/3/5
f 470/3/5 466/3/5 465/3/5
f 470/3/5 465/3/5 464/3/5
f 470/3/5 464/3/5 463/3/5
f 471/3/5 469/3/5 468/3/5
f 471/3/5 470/3/5 469/3/5
f 471/3/5 467/3/5 455/3/5
f 471/3/5 468/3/5 467/3/5
f 472/3/5 470/3/5 471/3/5
f 473/3/5 470/3/5 472/3/5
f 474/3/5 466/3/5 470/3/5
f 474/3/5 470/3/5 473/3/5
f 475/3/5 471/3/5 455/3/5
f 476/3/5 471/3/5 475/3/5
f 477/3/5 466/3/5 474/3/5
f 478/3/5 466/3/5 477/3/5
f 479/3/5 473/3/5 472/3/5
f 480/3/5 473/3/5 479/3/5
f 481/3/5 473/3/5 480/3/5
f 482/3/5 473/3/5 481/3/5
f 483/3/5 471/3/5 476/3/5
f 484/3/5 471/3/5 483/3/5
f 485/3/5 481/3/5 480/3/5
f 486/3/5 481/3/5 485/3/5
f 487/3/5 477/3/5 474/3/5
f 488/3/5 477/3/5 487/3/5
f 489/3/5 471/3/5 484/3/5
f 490/3/5 471/3/5 489/3/5
f 491/3/5 487/3/5 474/3/5
f 492/3/5 487/3/5 491/3/5
f 493/3/5 471/3/5 490/3/5
f 494/3/5 471/3/5 493/3/5
f 495/3/5 491/3/5 474/3/5
f 496/3/5 491/3/5 495/3/5
f 497/3/5 471/3/5 494/3/5
f 498/3/5 471/3/5 497/3/5
f 499/3/5 495/3/5 474/3/5
f 500/3/5 495/3/5 499/3/5
f 501/3/5 471/3/5 498/3/5
f 502/3/5 471/3/5 501/3/5
f 503/3/5 499/3/5 474/3/5
f 504/3/5 499/3/5 503/3/5
f 505/3/5 471/3/5 502/3/5
f 506/3/5 471/3/5 505/3/5
f 507/3/5 503/3/5 474/3/5
f 508/3/5 503/3/5 507/3/5
f 509/6/6 510/6/6 514/6/6
f 514/6/6 510/6/6 515/6/6
f 511/6/6 512/6/6 518/6/6
f 518/6/6 512/6/6 519/6/6
f 513/6/6 514/6/6 522/6/6
f 514/1/6 515/1/6 523/1/6
f 522/6/6 514/6/6 523/6/6
f 515/6/6 516/6/6 524/6/6
f 523/1/6 515/1/6 524/1/6
f 524/6/6 516/6/6 525/6/6
f 517/6/6 518/6/6 530/6/6
f 518/1/6 519/1/6 531/1/6
f 530/6/6 518/6/6 531/6/6
f 519/6/6 520/6/6 532/6/6
f 531/1/6 519/1/6 532/1/6
f 532/6/6 520/6/6 533/6/6
f 521/7/6 522/7/6 536/7/6
f 525/7/6 526/7/6 537/7/6
f 527/4/6 528/4/6 540/4/6
f 540/4/6 528/4/6 541/4/6
f 541/4/6 528/4/6 542/4/6
f 542/4/6 528/4/6 543/4/6
f 529/7/6 530/7/6 546/7/6
f 533/7/6 534/7/6 547/7/6
f 537/4/6 538/4/6 549/4/6
f 539/4/6 540/4/6 550/4/6
f 543/4/6 544/4/6 551/4/6
f 545/4/6 546/4/6 552/4/6
f 549/4/6 550/4/6 553/4/6
f 537/4/6 549/4/6 553/4/6
f 550/4/6 540/4/6 554/4/6
f 553/4/6 550/4/6 554/4/6
f 543/4/6 551/4/6 555/4/6
f 551/4/6 552/4/6 555/4/6
f 552/4/6 546/4/6 556/4/6
f 555/4/6 552/4/6 556/4/6
f 535/4/6 536/4/6 557/4/6
f 536/7/6 522/7/6 558/7/6
f 557/4/6 536/4/6 558/4/6
f 554/4/6 540/4/6 559/4/6
f 540/5/6 541/5/6 559/5/6
f 541/3/6 542/3/6 560/3/6
f 559/5/6 541/5/6 560/5/6
f 542/5/6 543/5/6 561/5/6
f 560/3/6 542/3/6 561/3/6
f 543/4/6 555/4/6 562/4/6
f 561/5/6 543/5/6 562/5/6
f 547/4/6 548/4/6 563/4/6
f 533/7/6 547/7/6 563/7/6
f 563/4/6 548/4/6 564/4/6
f 554/4/6 559/4/6 565/4/6
f 559/2/6 560/2/6 566/2/6
f 565/4/6 559/4/6 566/4/6
f 560/3/6 561/3/6 567/3/6
f 566/2/6 560/2/6 567/2/6
f 561/2/6 562/2/6 568/2/6
f 567/3/6 561/3/6 568/3/6
f 562/4/6 555/4/6 569/4/6
f 568/2/6 562/2/6 569/2/6
f 569/4/6 555/4/6 570/4/6
f 558/7/6 522/7/6 571/7/6
f 522/4/6 523/4/6 572/4/6
f 571/7/6 522/7/6 572/7/6
f 567/4/6 568/4/6 573/4/6
f 568/4/6 569/4/6 573/4/6
f 566/4/6 567/4/6 573/4/6
f 573/4/6 569/4/6 574/4/6
f 532/4/6 533/4/6 575/4/6
f 533/7/6 563/7/6 575/7/6
f 575/7/6 563/7/6 576/7/6
f 572/4/6 523/4/6 577/4/6
f 523/7/6 524/7/6 578/7/6
f 577/4/6 523/4/6 578/4/6
f 532/4/6 575/4/6 579/4/6
f 531/7/6 532/7/6 579/7/6
f 579/4/6 575/4/6 580/4/6
f 578/7/6 524/7/6 581/7/6
f 524/4/6 525/4/6 582/4/6
f 581/7/6 524/7/6 582/7/6
f 530/4/6 531/4/6 583/4/6
f 531/7/6 579/7/6 583/7/6
f 583/7/6 579/7/6 584/7/6
f 582/4/6 525/4/6 585/4/6
f 525/7/6 537/7/6 586/7/6
f 585/4/6 525/4/6 586/4/6
f 530/4/6 583/4/6 587/4/6
f 546/7/6 530/7/6 587/7/6
f 587/4/6 583/4/6 588/4/6
f 586/7/6 537/7/6 589/7/6
f 537/4/6 553/4/6 590/4/6
f 589/7/6 537/7/6 590/7/6
f 556/4/6 546/4/6 591/4/6
f 546/7/6 587/7/6 591/7/6
f 591/7/6 587/7/6 592/7/6
f 590/4/6 553/4/6 593/4/6
f 593/4/6 553/4/6 594/4/6
f 556/4/6 591/4/6 595/4/6
f 595/4/6 591/4/6 596/4/6
