# MagicaVoxel @ Ephtracy

# group
o 

# material
mtllib PlayerShip_1.mtl
usemtl palette

# normals
vn -1 0 0
vn 1 0 0
vn 0 0 1
vn 0 0 -1
vn 0 -1 0
vn 0 1 0

# texcoords
vt 0.552734 0.5
vt 0.693359 0.5
vt 0.806641 0.5
vt 0.935547 0.5
vt 0.966797 0.5
vt 0.994141 0.5

# verts
v -1 -0.2 0.3
v -1 -0.2 0.2
v -1 -0.2 -0.7
v -1 0.1 0.2
v -1 0.1 -0.7
v -1 0.3 0.3
v -1 0.3 -0.7
v -0.9 -0.1 0.4
v -0.9 -0.1 0.3
v -0.9 0.2 0.4
v -0.9 0.2 0.3
v -0.8 -0.2 -0.7
v -0.8 -0.2 -0.9
v -0.8 0 0.8
v -0.8 0 0.4
v -0.8 0.1 0.8
v -0.8 0.1 0.4
v -0.8 0.2 -0.7
v -0.8 0.2 -0.8
v -0.8 0.3 -0.7
v -0.8 0.3 -0.8
v -0.8 0.3 -0.9
v -0.7 -0.1 -0.9
v -0.7 -0.1 -1
v -0.7 0.1 -0.9
v -0.7 0.1 -1
v -0.7 0.2 -0.9
v -0.7 0.2 -1
v -0.2 -0.2 0.6
v -0.2 -0.2 -0.2
v -0.2 0 0.6
v -0.2 0 0.5
v -0.2 0 0.4
v -0.2 0 0.1
v -0.2 0.1 0.5
v -0.2 0.1 0.4
v -0.2 0.1 0.3
v -0.2 0.2 0.3
v -0.2 0.2 0.1
v -0.2 0.2 -0.2
v -0.2 0.3 0.1
v -0.2 0.3 -0.2
v -0.1 -0.1 0.9
v -0.1 -0.1 0.6
v -0.1 0 0.9
v -0.1 0 0.6
v -0.1 0 0.5
v -0.1 0.1 0.9
v -0.1 0.1 0.5
v -0.1 0.2 0.2
v -0.1 0.2 0.1
v -0.1 0.3 0.2
v -0.1 0.3 0.1
v 0 -0.1 1
v 0 -0.1 0.9
v 0 0 0.9
v 0 0.1 1
v 0 0.1 0.9
v 0.5 -0.2 -0.7
v 0.5 -0.2 -0.9
v 0.5 0.2 -0.7
v 0.5 0.2 -0.8
v 0.5 0.3 -0.7
v 0.5 0.3 -0.8
v 0.5 0.3 -0.9
v 0.6 -0.2 0.3
v 0.6 -0.2 0
v 0.6 -0.2 -0.1
v 0.6 -0.2 -0.2
v 0.6 -0.1 -0.9
v 0.6 -0.1 -1
v 0.6 0.1 -0.9
v 0.6 0.1 -1
v 0.6 0.2 0
v 0.6 0.2 -0.1
v 0.6 0.2 -0.9
v 0.6 0.2 -1
v 0.6 0.3 0.3
v 0.6 0.3 -0.2
v 0.7 -0.1 0.4
v 0.7 -0.1 0.3
v 0.7 0.2 0.4
v 0.7 0.2 0.3
v 0.8 0 0.8
v 0.8 0 0.4
v 0.8 0.1 0.8
v 0.8 0.1 0.4
v -0.7 0 0.8
v -0.7 0 0.4
v -0.7 0.1 0.8
v -0.7 0.1 0.4
v -0.6 -0.1 0.4
v -0.6 -0.1 0.3
v -0.6 0.2 0.4
v -0.6 0.2 0.3
v -0.5 -0.2 0.3
v -0.5 -0.2 0
v -0.5 -0.2 -0.1
v -0.5 -0.2 -0.2
v -0.5 -0.1 -0.9
v -0.5 -0.1 -1
v -0.5 0.1 -0.9
v -0.5 0.1 -1
v -0.5 0.2 0
v -0.5 0.2 -0.1
v -0.5 0.2 -0.9
v -0.5 0.2 -1
v -0.5 0.3 0.3
v -0.5 0.3 -0.2
v -0.4 -0.2 -0.7
v -0.4 -0.2 -0.9
v -0.4 0.2 -0.7
v -0.4 0.2 -0.8
v -0.4 0.3 -0.7
v -0.4 0.3 -0.8
v -0.4 0.3 -0.9
v 0.1 -0.1 1
v 0.1 -0.1 0.9
v 0.1 0 0.9
v 0.1 0.1 1
v 0.1 0.1 0.9
v 0.2 -0.1 0.9
v 0.2 -0.1 0.6
v 0.2 0 0.9
v 0.2 0 0.6
v 0.2 0 0.5
v 0.2 0.1 0.9
v 0.2 0.1 0.5
v 0.2 0.2 0.2
v 0.2 0.2 0.1
v 0.2 0.3 0.2
v 0.2 0.3 0.1
v 0.3 -0.2 0.6
v 0.3 -0.2 -0.2
v 0.3 0 0.6
v 0.3 0 0.5
v 0.3 0 0.4
v 0.3 0 0.1
v 0.3 0.1 0.5
v 0.3 0.1 0.4
v 0.3 0.1 0.3
v 0.3 0.2 0.3
v 0.3 0.2 0.1
v 0.3 0.2 -0.2
v 0.3 0.3 0.1
v 0.3 0.3 -0.2
v 0.8 -0.1 -0.9
v 0.8 -0.1 -1
v 0.8 0.1 -0.9
v 0.8 0.1 -1
v 0.8 0.2 -0.9
v 0.8 0.2 -1
v 0.9 -0.2 -0.7
v 0.9 -0.2 -0.9
v 0.9 0 0.8
v 0.9 0 0.4
v 0.9 0.1 0.8
v 0.9 0.1 0.4
v 0.9 0.2 -0.7
v 0.9 0.2 -0.8
v 0.9 0.3 -0.7
v 0.9 0.3 -0.8
v 0.9 0.3 -0.9
v 1 -0.1 0.4
v 1 -0.1 0.3
v 1 0.2 0.4
v 1 0.2 0.3
v 1.1 -0.2 0.3
v 1.1 -0.2 0.2
v 1.1 -0.2 -0.7
v 1.1 0.1 0.2
v 1.1 0.1 -0.7
v 1.1 0.3 0.3
v 1.1 0.3 -0.7
v 0 -0.1 1
v 0 0.1 1
v 0.1 -0.1 1
v 0.1 0.1 1
v -0.1 -0.1 0.9
v -0.1 0 0.9
v -0.1 0.1 0.9
v 0 -0.1 0.9
v 0 0 0.9
v 0 0.1 0.9
v 0.1 -0.1 0.9
v 0.1 0 0.9
v 0.1 0.1 0.9
v 0.2 -0.1 0.9
v 0.2 0 0.9
v 0.2 0.1 0.9
v -0.8 0 0.8
v -0.8 0.1 0.8
v -0.7 0 0.8
v -0.7 0.1 0.8
v 0.8 0 0.8
v 0.8 0.1 0.8
v 0.9 0 0.8
v 0.9 0.1 0.8
v -0.2 -0.2 0.6
v -0.2 0 0.6
v -0.1 -0.1 0.6
v -0.1 0 0.6
v 0.2 -0.1 0.6
v 0.2 0 0.6
v 0.3 -0.2 0.6
v 0.3 0 0.6
v -0.2 0 0.5
v -0.2 0.1 0.5
v -0.1 0 0.5
v -0.1 0.1 0.5
v 0.2 0 0.5
v 0.2 0.1 0.5
v 0.3 0 0.5
v 0.3 0.1 0.5
v -0.9 -0.1 0.4
v -0.9 0.2 0.4
v -0.8 -0.1 0.4
v -0.8 0 0.4
v -0.8 0.1 0.4
v -0.8 0.2 0.4
v -0.7 -0.1 0.4
v -0.7 0 0.4
v -0.7 0.1 0.4
v -0.7 0.2 0.4
v -0.6 -0.1 0.4
v -0.6 0.2 0.4
v 0.7 -0.1 0.4
v 0.7 0.2 0.4
v 0.8 -0.1 0.4
v 0.8 0 0.4
v 0.8 0.1 0.4
v 0.8 0.2 0.4
v 0.9 -0.1 0.4
v 0.9 0 0.4
v 0.9 0.1 0.4
v 0.9 0.2 0.4
v 1 -0.1 0.4
v 1 0.2 0.4
v -1 -0.2 0.3
v -1 0.3 0.3
v -0.9 -0.2 0.3
v -0.9 -0.1 0.3
v -0.9 0.2 0.3
v -0.9 0.3 0.3
v -0.8 -0.2 0.3
v -0.8 -0.1 0.3
v -0.8 0.2 0.3
v -0.8 0.3 0.3
v -0.7 -0.2 0.3
v -0.7 -0.1 0.3
v -0.7 0.2 0.3
v -0.7 0.3 0.3
v -0.6 -0.2 0.3
v -0.6 -0.1 0.3
v -0.6 0.2 0.3
v -0.6 0.3 0.3
v -0.5 -0.2 0.3
v -0.5 0.3 0.3
v -0.2 0.1 0.3
v -0.2 0.2 0.3
v 0.3 0.1 0.3
v 0.3 0.2 0.3
v 0.6 -0.2 0.3
v 0.6 0.3 0.3
v 0.7 -0.2 0.3
v 0.7 -0.1 0.3
v 0.7 0.2 0.3
v 0.7 0.3 0.3
v 0.8 -0.2 0.3
v 0.8 -0.1 0.3
v 0.8 0.2 0.3
v 0.8 0.3 0.3
v 0.9 -0.2 0.3
v 0.9 -0.1 0.3
v 0.9 0.2 0.3
v 0.9 0.3 0.3
v 1 -0.2 0.3
v 1 -0.1 0.3
v 1 0.2 0.3
v 1 0.3 0.3
v 1.1 -0.2 0.3
v 1.1 0.3 0.3
v -0.1 0.2 0.2
v -0.1 0.3 0.2
v 0.2 0.2 0.2
v 0.2 0.3 0.2
v -0.2 0.2 0.1
v -0.2 0.3 0.1
v -0.1 0.2 0.1
v -0.1 0.3 0.1
v 0.2 0.2 0.1
v 0.2 0.3 0.1
v 0.3 0.2 0.1
v 0.3 0.3 0.1
v -0.5 -0.2 -0.2
v -0.5 0.3 -0.2
v -0.3 -0.2 -0.2
v -0.3 0.2 -0.2
v -0.2 -0.2 -0.2
v -0.2 0.2 -0.2
v -0.2 0.3 -0.2
v 0.3 -0.2 -0.2
v 0.3 0.2 -0.2
v 0.3 0.3 -0.2
v 0.4 -0.2 -0.2
v 0.4 0.2 -0.2
v 0.6 -0.2 -0.2
v 0.6 0.3 -0.2
v -1 -0.2 -0.7
v -1 0.1 -0.7
v -1 0.3 -0.7
v -0.9 0.1 -0.7
v -0.9 0.2 -0.7
v -0.8 -0.2 -0.7
v -0.8 0.2 -0.7
v -0.8 0.3 -0.7
v -0.4 -0.2 -0.7
v -0.4 0.2 -0.7
v -0.4 0.3 -0.7
v 0.5 -0.2 -0.7
v 0.5 0.2 -0.7
v 0.5 0.3 -0.7
v 0.9 -0.2 -0.7
v 0.9 0.2 -0.7
v 0.9 0.3 -0.7
v 1 0.1 -0.7
v 1 0.2 -0.7
v 1.1 -0.2 -0.7
v 1.1 0.1 -0.7
v 1.1 0.3 -0.7
v -0.8 -0.2 -0.9
v -0.8 0.3 -0.9
v -0.7 -0.1 -0.9
v -0.7 0.1 -0.9
v -0.7 0.2 -0.9
v -0.5 -0.1 -0.9
v -0.5 0.1 -0.9
v -0.5 0.2 -0.9
v -0.4 -0.2 -0.9
v -0.4 0.3 -0.9
v 0.5 -0.2 -0.9
v 0.5 0.3 -0.9
v 0.6 -0.1 -0.9
v 0.6 0.1 -0.9
v 0.6 0.2 -0.9
v 0.8 -0.1 -0.9
v 0.8 0.1 -0.9
v 0.8 0.2 -0.9
v 0.9 -0.2 -0.9
v 0.9 0.3 -0.9
v -0.7 -0.1 -1
v -0.7 0.1 -1
v -0.7 0.2 -1
v -0.5 -0.1 -1
v -0.5 0.1 -1
v -0.5 0.2 -1
v 0.6 -0.1 -1
v 0.6 0.1 -1
v 0.6 0.2 -1
v 0.8 -0.1 -1
v 0.8 0.1 -1
v 0.8 0.2 -1
v -0.2 -0.2 0.6
v 0.3 -0.2 0.6
v -1 -0.2 0.3
v -0.9 -0.2 0.3
v -0.8 -0.2 0.3
v -0.7 -0.2 0.3
v -0.6 -0.2 0.3
v -0.5 -0.2 0.3
v 0.6 -0.2 0.3
v 0.7 -0.2 0.3
v 0.8 -0.2 0.3
v 0.9 -0.2 0.3
v 1 -0.2 0.3
v 1.1 -0.2 0.3
v -1 -0.2 0.2
v -0.9 -0.2 0.2
v -0.8 -0.2 0.2
v -0.7 -0.2 0.2
v 0.8 -0.2 0.2
v 0.9 -0.2 0.2
v 1 -0.2 0.2
v 1.1 -0.2 0.2
v -0.6 -0.2 0
v -0.5 -0.2 0
v 0.6 -0.2 0
v 0.7 -0.2 0
v -0.6 -0.2 -0.1
v -0.5 -0.2 -0.1
v 0.6 -0.2 -0.1
v 0.7 -0.2 -0.1
v -0.5 -0.2 -0.2
v -0.3 -0.2 -0.2
v -0.2 -0.2 -0.2
v 0.3 -0.2 -0.2
v 0.4 -0.2 -0.2
v 0.6 -0.2 -0.2
v -0.6 -0.2 -0.3
v -0.3 -0.2 -0.3
v 0.4 -0.2 -0.3
v 0.7 -0.2 -0.3
v -1 -0.2 -0.7
v -0.8 -0.2 -0.7
v -0.4 -0.2 -0.7
v 0.5 -0.2 -0.7
v 0.9 -0.2 -0.7
v 1.1 -0.2 -0.7
v -0.8 -0.2 -0.9
v -0.4 -0.2 -0.9
v 0.5 -0.2 -0.9
v 0.9 -0.2 -0.9
v 0 -0.1 1
v 0.1 -0.1 1
v -0.1 -0.1 0.9
v 0 -0.1 0.9
v 0.1 -0.1 0.9
v 0.2 -0.1 0.9
v -0.1 -0.1 0.6
v 0.2 -0.1 0.6
v -0.9 -0.1 0.4
v -0.8 -0.1 0.4
v -0.7 -0.1 0.4
v -0.6 -0.1 0.4
v 0.7 -0.1 0.4
v 0.8 -0.1 0.4
v 0.9 -0.1 0.4
v 1 -0.1 0.4
v -0.9 -0.1 0.3
v -0.8 -0.1 0.3
v -0.7 -0.1 0.3
v -0.6 -0.1 0.3
v 0.7 -0.1 0.3
v 0.8 -0.1 0.3
v 0.9 -0.1 0.3
v 1 -0.1 0.3
v -0.7 -0.1 -0.9
v -0.5 -0.1 -0.9
v 0.6 -0.1 -0.9
v 0.8 -0.1 -0.9
v -0.7 -0.1 -1
v -0.5 -0.1 -1
v 0.6 -0.1 -1
v 0.8 -0.1 -1
v -0.8 0 0.8
v -0.7 0 0.8
v 0.8 0 0.8
v 0.9 0 0.8
v -0.8 0 0.4
v -0.7 0 0.4
v 0.8 0 0.4
v 0.9 0 0.4
v -0.2 0 0.6
v -0.1 0 0.6
v 0.2 0 0.6
v 0.3 0 0.6
v -0.2 0 0.5
v -0.1 0 0.5
v 0.2 0 0.5
v 0.3 0 0.5
v 0 0.1 1
v 0.1 0.1 1
v -0.1 0.1 0.9
v 0 0.1 0.9
v 0.1 0.1 0.9
v 0.2 0.1 0.9
v -0.8 0.1 0.8
v -0.7 0.1 0.8
v 0.8 0.1 0.8
v 0.9 0.1 0.8
v -0.2 0.1 0.5
v -0.1 0.1 0.5
v 0.2 0.1 0.5
v 0.3 0.1 0.5
v -0.8 0.1 0.4
v -0.7 0.1 0.4
v -0.2 0.1 0.4
v -0.1 0.1 0.4
v 0 0.1 0.4
v 0.1 0.1 0.4
v 0.2 0.1 0.4
v 0.3 0.1 0.4
v 0.8 0.1 0.4
v 0.9 0.1 0.4
v -0.2 0.1 0.3
v 0.3 0.1 0.3
v -0.9 0.2 0.4
v -0.8 0.2 0.4
v -0.7 0.2 0.4
v -0.6 0.2 0.4
v 0.7 0.2 0.4
v 0.8 0.2 0.4
v 0.9 0.2 0.4
v 1 0.2 0.4
v -0.9 0.2 0.3
v -0.8 0.2 0.3
v -0.7 0.2 0.3
v -0.6 0.2 0.3
v -0.2 0.2 0.3
v 0.3 0.2 0.3
v 0.7 0.2 0.3
v 0.8 0.2 0.3
v 0.9 0.2 0.3
v 1 0.2 0.3
v -0.1 0.2 0.2
v 0.2 0.2 0.2
v -0.2 0.2 0.1
v -0.1 0.2 0.1
v 0.2 0.2 0.1
v 0.3 0.2 0.1
v -0.7 0.2 -0.9
v -0.5 0.2 -0.9
v 0.6 0.2 -0.9
v 0.8 0.2 -0.9
v -0.7 0.2 -1
v -0.5 0.2 -1
v 0.6 0.2 -1
v 0.8 0.2 -1
v -1 0.3 0.3
v -0.9 0.3 0.3
v -0.8 0.3 0.3
v -0.7 0.3 0.3
v -0.6 0.3 0.3
v -0.5 0.3 0.3
v 0.6 0.3 0.3
v 0.7 0.3 0.3
v 0.8 0.3 0.3
v 0.9 0.3 0.3
v 1 0.3 0.3
v 1.1 0.3 0.3
v -0.1 0.3 0.2
v 0.2 0.3 0.2
v -0.2 0.3 0.1
v -0.1 0.3 0.1
v 0 0.3 0.1
v 0.1 0.3 0.1
v 0.2 0.3 0.1
v 0.3 0.3 0.1
v -0.5 0.3 -0.2
v -0.2 0.3 -0.2
v 0.3 0.3 -0.2
v 0.6 0.3 -0.2
v -0.6 0.3 -0.3
v -0.1 0.3 -0.3
v 0.2 0.3 -0.3
v 0.7 0.3 -0.3
v -0.9 0.3 -0.4
v -0.8 0.3 -0.4
v -0.7 0.3 -0.4
v 0 0.3 -0.4
v 0.1 0.3 -0.4
v 0.8 0.3 -0.4
v 0.9 0.3 -0.4
v 1 0.3 -0.4
v -0.9 0.3 -0.5
v -0.8 0.3 -0.5
v -0.7 0.3 -0.5
v 0.8 0.3 -0.5
v 0.9 0.3 -0.5
v 1 0.3 -0.5
v -0.9 0.3 -0.6
v -0.8 0.3 -0.6
v -0.7 0.3 -0.6
v 0.8 0.3 -0.6
v 0.9 0.3 -0.6
v 1 0.3 -0.6
v -1 0.3 -0.7
v -0.8 0.3 -0.7
v -0.4 0.3 -0.7
v 0.5 0.3 -0.7
v 0.9 0.3 -0.7
v 1.1 0.3 -0.7
v -0.8 0.3 -0.8
v -0.4 0.3 -0.8
v 0.5 0.3 -0.8
v 0.9 0.3 -0.8
v -0.8 0.3 -0.9
v -0.4 0.3 -0.9
v 0.5 0.3 -0.9
v 0.9 0.3 -0.9

# faces
f 4/1/1 2/1/1 1/1/1
f 4/5/1 3/5/1 2/5/1
f 5/5/1 3/5/1 4/5/1
f 6/1/1 4/1/1 1/1/1
f 6/1/1 5/1/1 4/1/1
f 7/1/1 5/1/1 6/1/1
f 10/5/1 9/5/1 8/5/1
f 11/5/1 9/5/1 10/5/1
f 16/6/1 15/6/1 14/6/1
f 17/6/1 15/6/1 16/6/1
f 18/5/1 13/5/1 12/5/1
f 19/5/1 13/5/1 18/5/1
f 20/3/1 19/3/1 18/3/1
f 21/5/1 13/5/1 19/5/1
f 21/3/1 19/3/1 20/3/1
f 22/5/1 13/5/1 21/5/1
f 25/5/1 24/5/1 23/5/1
f 26/5/1 24/5/1 25/5/1
f 27/3/1 26/3/1 25/3/1
f 28/3/1 26/3/1 27/3/1
f 31/5/1 30/5/1 29/5/1
f 32/5/1 30/5/1 31/5/1
f 33/5/1 30/5/1 32/5/1
f 34/5/1 30/5/1 33/5/1
f 35/5/1 33/5/1 32/5/1
f 36/4/1 34/4/1 33/4/1
f 36/5/1 33/5/1 35/5/1
f 37/4/1 34/4/1 36/4/1
f 38/4/1 34/4/1 37/4/1
f 39/5/1 30/5/1 34/5/1
f 39/4/1 34/4/1 38/4/1
f 40/5/1 30/5/1 39/5/1
f 41/1/1 40/1/1 39/1/1
f 42/1/1 40/1/1 41/1/1
f 45/5/1 44/5/1 43/5/1
f 46/5/1 44/5/1 45/5/1
f 48/2/1 46/2/1 45/2/1
f 48/2/1 47/2/1 46/2/1
f 49/2/1 47/2/1 48/2/1
f 52/4/1 51/4/1 50/4/1
f 53/4/1 51/4/1 52/4/1
f 56/5/1 55/5/1 54/5/1
f 57/5/1 56/5/1 54/5/1
f 58/5/1 56/5/1 57/5/1
f 61/5/1 60/5/1 59/5/1
f 62/5/1 60/5/1 61/5/1
f 63/3/1 62/3/1 61/3/1
f 64/5/1 60/5/1 62/5/1
f 64/3/1 62/3/1 63/3/1
f 65/5/1 60/5/1 64/5/1
f 72/5/1 71/5/1 70/5/1
f 73/5/1 71/5/1 72/5/1
f 74/1/1 67/1/1 66/1/1
f 74/5/1 68/5/1 67/5/1
f 75/1/1 69/1/1 68/1/1
f 75/5/1 68/5/1 74/5/1
f 76/3/1 73/3/1 72/3/1
f 77/3/1 73/3/1 76/3/1
f 78/1/1 74/1/1 66/1/1
f 78/1/1 75/1/1 74/1/1
f 79/1/1 69/1/1 75/1/1
f 79/1/1 75/1/1 78/1/1
f 82/5/1 81/5/1 80/5/1
f 83/5/1 81/5/1 82/5/1
f 86/6/1 85/6/1 84/6/1
f 87/6/1 85/6/1 86/6/1
f 88/6/2 89/6/2 90/6/2
f 90/6/2 89/6/2 91/6/2
f 92/5/2 93/5/2 94/5/2
f 94/5/2 93/5/2 95/5/2
f 100/5/2 101/5/2 102/5/2
f 102/5/2 101/5/2 103/5/2
f 96/1/2 97/1/2 104/1/2
f 97/5/2 98/5/2 104/5/2
f 98/1/2 99/1/2 105/1/2
f 104/5/2 98/5/2 105/5/2
f 102/3/2 103/3/2 106/3/2
f 106/3/2 103/3/2 107/3/2
f 96/1/2 104/1/2 108/1/2
f 104/1/2 105/1/2 108/1/2
f 105/1/2 99/1/2 109/1/2
f 108/1/2 105/1/2 109/1/2
f 110/5/2 111/5/2 112/5/2
f 112/5/2 111/5/2 113/5/2
f 112/3/2 113/3/2 114/3/2
f 113/5/2 111/5/2 115/5/2
f 114/3/2 113/3/2 115/3/2
f 115/5/2 111/5/2 116/5/2
f 117/5/2 118/5/2 119/5/2
f 117/5/2 119/5/2 120/5/2
f 120/5/2 119/5/2 121/5/2
f 122/5/2 123/5/2 124/5/2
f 124/5/2 123/5/2 125/5/2
f 124/2/2 125/2/2 127/2/2
f 125/2/2 126/2/2 127/2/2
f 127/2/2 126/2/2 128/2/2
f 129/4/2 130/4/2 131/4/2
f 131/4/2 130/4/2 132/4/2
f 133/5/2 134/5/2 135/5/2
f 135/5/2 134/5/2 136/5/2
f 136/5/2 134/5/2 137/5/2
f 137/5/2 134/5/2 138/5/2
f 136/5/2 137/5/2 139/5/2
f 137/4/2 138/4/2 140/4/2
f 139/5/2 137/5/2 140/5/2
f 140/4/2 138/4/2 141/4/2
f 141/4/2 138/4/2 142/4/2
f 138/5/2 134/5/2 143/5/2
f 142/4/2 138/4/2 143/4/2
f 143/5/2 134/5/2 144/5/2
f 143/1/2 144/1/2 145/1/2
f 145/1/2 144/1/2 146/1/2
f 147/5/2 148/5/2 149/5/2
f 149/5/2 148/5/2 150/5/2
f 149/3/2 150/3/2 151/3/2
f 151/3/2 150/3/2 152/3/2
f 155/6/2 156/6/2 157/6/2
f 157/6/2 156/6/2 158/6/2
f 153/5/2 154/5/2 159/5/2
f 159/5/2 154/5/2 160/5/2
f 159/3/2 160/3/2 161/3/2
f 160/5/2 154/5/2 162/5/2
f 161/3/2 160/3/2 162/3/2
f 162/5/2 154/5/2 163/5/2
f 164/5/2 165/5/2 166/5/2
f 166/5/2 165/5/2 167/5/2
f 168/1/2 169/1/2 171/1/2
f 169/5/2 170/5/2 171/5/2
f 171/5/2 170/5/2 172/5/2
f 168/1/2 171/1/2 173/1/2
f 171/1/2 172/1/2 173/1/2
f 173/1/2 172/1/2 174/1/2
f 177/5/3 176/5/3 175/5/3
f 178/5/3 176/5/3 177/5/3
f 182/5/3 180/5/3 179/5/3
f 183/2/3 181/2/3 180/2/3
f 183/5/3 180/5/3 182/5/3
f 184/2/3 181/2/3 183/2/3
f 188/5/3 186/5/3 185/5/3
f 189/2/3 187/2/3 186/2/3
f 189/5/3 186/5/3 188/5/3
f 190/2/3 187/2/3 189/2/3
f 193/6/3 192/6/3 191/6/3
f 194/6/3 192/6/3 193/6/3
f 197/6/3 196/6/3 195/6/3
f 198/6/3 196/6/3 197/6/3
f 201/5/3 200/5/3 199/5/3
f 202/5/3 200/5/3 201/5/3
f 203/5/3 201/5/3 199/5/3
f 205/5/3 203/5/3 199/5/3
f 205/5/3 204/5/3 203/5/3
f 206/5/3 204/5/3 205/5/3
f 209/5/3 208/5/3 207/5/3
f 210/5/3 208/5/3 209/5/3
f 213/5/3 212/5/3 211/5/3
f 214/5/3 212/5/3 213/5/3
f 217/5/3 216/5/3 215/5/3
f 218/5/3 216/5/3 217/5/3
f 219/5/3 216/5/3 218/5/3
f 220/5/3 216/5/3 219/5/3
f 221/1/3 218/1/3 217/1/3
f 222/1/3 218/1/3 221/1/3
f 223/1/3 220/1/3 219/1/3
f 224/1/3 220/1/3 223/1/3
f 225/5/3 222/5/3 221/5/3
f 225/5/3 223/5/3 222/5/3
f 225/5/3 224/5/3 223/5/3
f 226/5/3 224/5/3 225/5/3
f 229/5/3 228/5/3 227/5/3
f 230/5/3 228/5/3 229/5/3
f 231/5/3 228/5/3 230/5/3
f 232/5/3 228/5/3 231/5/3
f 233/1/3 230/1/3 229/1/3
f 234/1/3 230/1/3 233/1/3
f 235/1/3 232/1/3 231/1/3
f 236/1/3 232/1/3 235/1/3
f 237/5/3 234/5/3 233/5/3
f 237/5/3 235/5/3 234/5/3
f 237/5/3 236/5/3 235/5/3
f 238/5/3 236/5/3 237/5/3
f 241/1/3 240/1/3 239/1/3
f 242/1/3 240/1/3 241/1/3
f 243/1/3 240/1/3 242/1/3
f 244/1/3 240/1/3 243/1/3
f 245/5/3 242/5/3 241/5/3
f 246/5/3 242/5/3 245/5/3
f 247/5/3 244/5/3 243/5/3
f 248/5/3 244/5/3 247/5/3
f 249/1/3 246/1/3 245/1/3
f 250/1/3 246/1/3 249/1/3
f 251/1/3 248/1/3 247/1/3
f 252/1/3 248/1/3 251/1/3
f 253/5/3 250/5/3 249/5/3
f 254/5/3 250/5/3 253/5/3
f 255/5/3 252/5/3 251/5/3
f 256/5/3 252/5/3 255/5/3
f 257/1/3 254/1/3 253/1/3
f 257/1/3 255/1/3 254/1/3
f 257/1/3 256/1/3 255/1/3
f 258/1/3 256/1/3 257/1/3
f 261/4/3 260/4/3 259/4/3
f 262/4/3 260/4/3 261/4/3
f 265/1/3 264/1/3 263/1/3
f 266/1/3 264/1/3 265/1/3
f 267/1/3 264/1/3 266/1/3
f 268/1/3 264/1/3 267/1/3
f 269/5/3 266/5/3 265/5/3
f 270/5/3 266/5/3 269/5/3
f 271/5/3 268/5/3 267/5/3
f 272/5/3 268/5/3 271/5/3
f 273/1/3 270/1/3 269/1/3
f 274/1/3 270/1/3 273/1/3
f 275/1/3 272/1/3 271/1/3
f 276/1/3 272/1/3 275/1/3
f 277/5/3 274/5/3 273/5/3
f 278/5/3 274/5/3 277/5/3
f 279/5/3 276/5/3 275/5/3
f 280/5/3 276/5/3 279/5/3
f 281/1/3 278/1/3 277/1/3
f 281/1/3 279/1/3 278/1/3
f 281/1/3 280/1/3 279/1/3
f 282/1/3 280/1/3 281/1/3
f 285/4/3 284/4/3 283/4/3
f 286/4/3 284/4/3 285/4/3
f 289/1/3 288/1/3 287/1/3
f 290/1/3 288/1/3 289/1/3
f 293/1/3 292/1/3 291/1/3
f 294/1/3 292/1/3 293/1/3
f 297/1/3 296/1/3 295/1/3
f 298/1/3 296/1/3 297/1/3
f 299/5/3 298/5/3 297/5/3
f 300/1/3 296/1/3 298/1/3
f 300/5/3 298/5/3 299/5/3
f 301/1/3 296/1/3 300/1/3
f 305/5/3 303/5/3 302/5/3
f 306/1/3 304/1/3 303/1/3
f 306/5/3 303/5/3 305/5/3
f 307/1/3 306/1/3 305/1/3
f 308/1/3 304/1/3 306/1/3
f 308/1/3 306/1/3 307/1/3
f 309/5/4 310/5/4 312/5/4
f 310/1/4 311/1/4 312/1/4
f 312/1/4 311/1/4 313/1/4
f 309/5/4 312/5/4 314/5/4
f 312/5/4 313/5/4 314/5/4
f 313/1/4 311/1/4 315/1/4
f 314/5/4 313/5/4 315/5/4
f 315/1/4 311/1/4 316/1/4
f 317/5/4 318/5/4 320/5/4
f 318/1/4 319/1/4 321/1/4
f 320/5/4 318/5/4 321/5/4
f 321/1/4 319/1/4 322/1/4
f 323/5/4 324/5/4 326/5/4
f 324/1/4 325/1/4 327/1/4
f 326/5/4 324/5/4 327/5/4
f 323/5/4 326/5/4 328/5/4
f 326/1/4 327/1/4 329/1/4
f 328/5/4 326/5/4 329/5/4
f 327/1/4 325/1/4 330/1/4
f 329/1/4 327/1/4 330/1/4
f 331/5/4 332/5/4 333/5/4
f 333/5/4 332/5/4 334/5/4
f 334/5/4 332/5/4 335/5/4
f 331/5/4 333/5/4 336/5/4
f 335/5/4 332/5/4 338/5/4
f 336/5/4 337/5/4 339/5/4
f 337/5/4 338/5/4 339/5/4
f 331/5/4 336/5/4 339/5/4
f 338/5/4 332/5/4 340/5/4
f 339/5/4 338/5/4 340/5/4
f 341/5/4 342/5/4 343/5/4
f 343/5/4 342/5/4 344/5/4
f 344/5/4 342/5/4 345/5/4
f 341/5/4 343/5/4 346/5/4
f 345/5/4 342/5/4 348/5/4
f 346/5/4 347/5/4 349/5/4
f 347/5/4 348/5/4 349/5/4
f 341/5/4 346/5/4 349/5/4
f 348/5/4 342/5/4 350/5/4
f 349/5/4 348/5/4 350/5/4
f 351/5/4 352/5/4 354/5/4
f 352/3/4 353/3/4 355/3/4
f 354/5/4 352/5/4 355/5/4
f 355/3/4 353/3/4 356/3/4
f 357/5/4 358/5/4 360/5/4
f 358/3/4 359/3/4 361/3/4
f 360/5/4 358/5/4 361/5/4
f 361/3/4 359/3/4 362/3/4
f 377/1/5 366/1/5 365/1/5
f 378/5/5 367/5/5 366/5/5
f 378/1/5 366/1/5 377/1/5
f 379/1/5 368/1/5 367/1/5
f 379/5/5 367/5/5 378/5/5
f 380/5/5 369/5/5 368/5/5
f 380/1/5 368/1/5 379/1/5
f 381/5/5 373/5/5 372/5/5
f 381/1/5 374/1/5 373/1/5
f 382/5/5 375/5/5 374/5/5
f 382/1/5 374/1/5 381/1/5
f 383/1/5 376/1/5 375/1/5
f 383/5/5 375/5/5 382/5/5
f 384/1/5 376/1/5 383/1/5
f 385/5/5 378/5/5 377/5/5
f 385/5/5 379/5/5 378/5/5
f 385/1/5 370/1/5 369/1/5
f 385/5/5 369/5/5 380/5/5
f 385/5/5 380/5/5 379/5/5
f 386/1/5 370/1/5 385/1/5
f 387/1/5 372/1/5 371/1/5
f 388/5/5 382/5/5 381/5/5
f 388/1/5 372/1/5 387/1/5
f 388/5/5 384/5/5 383/5/5
f 388/5/5 383/5/5 382/5/5
f 388/5/5 381/5/5 372/5/5
f 389/5/5 385/5/5 377/5/5
f 389/5/5 386/5/5 385/5/5
f 390/5/5 386/5/5 389/5/5
f 391/5/5 388/5/5 387/5/5
f 392/5/5 384/5/5 388/5/5
f 392/5/5 388/5/5 391/5/5
f 393/1/5 390/1/5 389/1/5
f 395/5/5 364/5/5 363/5/5
f 396/5/5 364/5/5 395/5/5
f 398/1/5 392/1/5 391/1/5
f 399/1/5 394/1/5 393/1/5
f 399/5/5 389/5/5 377/5/5
f 399/1/5 393/1/5 389/1/5
f 400/5/5 397/5/5 396/5/5
f 400/1/5 394/1/5 399/1/5
f 400/5/5 395/5/5 394/5/5
f 400/5/5 396/5/5 395/5/5
f 401/1/5 398/1/5 397/1/5
f 401/5/5 397/5/5 400/5/5
f 402/5/5 384/5/5 392/5/5
f 402/1/5 398/1/5 401/1/5
f 402/1/5 392/1/5 398/1/5
f 403/5/5 400/5/5 399/5/5
f 403/5/5 401/5/5 400/5/5
f 403/5/5 402/5/5 401/5/5
f 403/5/5 399/5/5 377/5/5
f 404/5/5 402/5/5 403/5/5
f 405/5/5 402/5/5 404/5/5
f 406/5/5 402/5/5 405/5/5
f 407/5/5 384/5/5 402/5/5
f 407/5/5 402/5/5 406/5/5
f 408/5/5 384/5/5 407/5/5
f 409/5/5 405/5/5 404/5/5
f 410/5/5 405/5/5 409/5/5
f 411/5/5 407/5/5 406/5/5
f 412/5/5 407/5/5 411/5/5
f 416/5/5 414/5/5 413/5/5
f 417/5/5 414/5/5 416/5/5
f 419/5/5 416/5/5 415/5/5
f 419/5/5 418/5/5 417/5/5
f 419/5/5 417/5/5 416/5/5
f 420/5/5 418/5/5 419/5/5
f 429/5/5 422/5/5 421/5/5
f 430/1/5 423/1/5 422/1/5
f 430/5/5 422/5/5 429/5/5
f 431/5/5 424/5/5 423/5/5
f 431/1/5 423/1/5 430/1/5
f 432/5/5 424/5/5 431/5/5
f 433/5/5 426/5/5 425/5/5
f 434/1/5 427/1/5 426/1/5
f 434/5/5 426/5/5 433/5/5
f 435/5/5 428/5/5 427/5/5
f 435/1/5 427/1/5 434/1/5
f 436/5/5 428/5/5 435/5/5
f 441/5/5 438/5/5 437/5/5
f 442/5/5 438/5/5 441/5/5
f 443/5/5 440/5/5 439/5/5
f 444/5/5 440/5/5 443/5/5
f 449/6/5 446/6/5 445/6/5
f 450/6/5 446/6/5 449/6/5
f 451/6/5 448/6/5 447/6/5
f 452/6/5 448/6/5 451/6/5
f 453/5/6 454/5/6 457/5/6
f 457/5/6 454/5/6 458/5/6
f 455/5/6 456/5/6 459/5/6
f 459/5/6 456/5/6 460/5/6
f 461/5/6 462/5/6 464/5/6
f 464/5/6 462/5/6 465/5/6
f 463/2/6 464/2/6 472/2/6
f 465/2/6 466/2/6 473/2/6
f 467/6/6 468/6/6 475/6/6
f 475/6/6 468/6/6 476/6/6
f 471/5/6 472/5/6 477/5/6
f 472/2/6 464/2/6 478/2/6
f 477/5/6 472/5/6 478/5/6
f 464/5/6 465/5/6 479/5/6
f 478/2/6 464/2/6 479/2/6
f 465/2/6 473/2/6 480/2/6
f 479/5/6 465/5/6 480/5/6
f 473/5/6 474/5/6 481/5/6
f 480/2/6 473/2/6 481/2/6
f 481/5/6 474/5/6 482/5/6
f 469/6/6 470/6/6 483/6/6
f 483/6/6 470/6/6 484/6/6
f 481/4/6 482/4/6 485/4/6
f 477/4/6 478/4/6 485/4/6
f 480/4/6 481/4/6 485/4/6
f 479/4/6 480/4/6 485/4/6
f 478/4/6 479/4/6 485/4/6
f 485/4/6 482/4/6 486/4/6
f 487/5/6 488/5/6 495/5/6
f 488/1/6 489/1/6 496/1/6
f 495/5/6 488/5/6 496/5/6
f 489/5/6 490/5/6 497/5/6
f 496/1/6 489/1/6 497/1/6
f 497/5/6 490/5/6 498/5/6
f 491/5/6 492/5/6 501/5/6
f 492/1/6 493/1/6 502/1/6
f 501/5/6 492/5/6 502/5/6
f 493/5/6 494/5/6 503/5/6
f 502/1/6 493/1/6 503/1/6
f 503/5/6 494/5/6 504/5/6
f 499/4/6 500/4/6 505/4/6
f 505/4/6 500/4/6 506/4/6
f 499/4/6 505/4/6 507/4/6
f 507/4/6 505/4/6 508/4/6
f 506/4/6 500/4/6 509/4/6
f 509/4/6 500/4/6 510/4/6
f 511/3/6 512/3/6 515/3/6
f 515/3/6 512/3/6 516/3/6
f 513/3/6 514/3/6 517/3/6
f 517/3/6 514/3/6 518/3/6
f 531/4/6 532/4/6 534/4/6
f 534/4/6 532/4/6 535/4/6
f 535/4/6 532/4/6 536/4/6
f 536/4/6 532/4/6 537/4/6
f 523/1/6 524/1/6 539/1/6
f 533/1/6 534/1/6 540/1/6
f 537/1/6 538/1/6 541/1/6
f 525/1/6 526/1/6 542/1/6
f 522/5/6 523/5/6 543/5/6
f 539/1/6 540/1/6 543/1/6
f 523/1/6 539/1/6 543/1/6
f 534/5/6 535/5/6 544/5/6
f 543/1/6 540/1/6 544/1/6
f 540/1/6 534/1/6 544/1/6
f 541/1/6 542/1/6 545/1/6
f 537/1/6 541/1/6 545/1/6
f 536/5/6 537/5/6 545/5/6
f 542/1/6 526/1/6 546/1/6
f 545/1/6 542/1/6 546/1/6
f 526/5/6 527/5/6 546/5/6
f 519/1/6 520/1/6 547/1/6
f 520/5/6 521/5/6 547/5/6
f 521/1/6 522/1/6 548/1/6
f 547/5/6 521/5/6 548/5/6
f 543/5/6 544/5/6 549/5/6
f 548/1/6 522/1/6 549/1/6
f 522/5/6 543/5/6 549/5/6
f 544/5/6 535/5/6 550/5/6
f 549/5/6 544/5/6 550/5/6
f 535/1/6 536/1/6 550/1/6
f 545/5/6 546/5/6 551/5/6
f 550/1/6 536/1/6 551/1/6
f 536/5/6 545/5/6 551/5/6
f 546/5/6 527/5/6 552/5/6
f 551/5/6 546/5/6 552/5/6
f 527/1/6 528/1/6 552/1/6
f 528/5/6 529/5/6 553/5/6
f 552/1/6 528/1/6 553/1/6
f 529/1/6 530/1/6 554/1/6
f 553/5/6 529/5/6 554/5/6
f 550/1/6 551/1/6 555/1/6
f 549/1/6 550/1/6 555/1/6
f 553/1/6 554/1/6 555/1/6
f 552/1/6 553/1/6 555/1/6
f 551/1/6 552/1/6 555/1/6
f 519/1/6 547/1/6 555/1/6
f 548/1/6 549/1/6 555/1/6
f 547/1/6 548/1/6 555/1/6
f 555/1/6 554/1/6 556/1/6
f 556/1/6 554/1/6 557/1/6
f 557/1/6 554/1/6 558/1/6
f 558/1/6 554/1/6 559/1/6
f 554/1/6 530/1/6 560/1/6
f 559/1/6 554/1/6 560/1/6
f 519/1/6 555/1/6 561/1/6
f 555/5/6 556/5/6 561/5/6
f 556/1/6 557/1/6 562/1/6
f 561/5/6 556/5/6 562/5/6
f 557/5/6 558/5/6 563/5/6
f 562/1/6 557/1/6 563/1/6
f 558/1/6 559/1/6 564/1/6
f 563/5/6 558/5/6 564/5/6
f 559/5/6 560/5/6 565/5/6
f 564/1/6 559/1/6 565/1/6
f 560/1/6 530/1/6 566/1/6
f 565/5/6 560/5/6 566/5/6
f 562/1/6 563/1/6 567/1/6
f 564/1/6 565/1/6 567/1/6
f 565/1/6 566/1/6 567/1/6
f 561/1/6 562/1/6 567/1/6
f 519/1/6 561/1/6 567/1/6
f 563/1/6 564/1/6 567/1/6
f 567/1/6 566/1/6 568/1/6
f 568/1/6 566/1/6 569/1/6
f 569/1/6 566/1/6 570/1/6
f 570/1/6 566/1/6 571/1/6
f 566/1/6 530/1/6 572/1/6
f 571/1/6 566/1/6 572/1/6
f 568/3/6 569/3/6 573/3/6
f 573/3/6 569/3/6 574/3/6
f 570/3/6 571/3/6 575/3/6
f 575/3/6 571/3/6 576/3/6
f 573/5/6 574/5/6 577/5/6
f 577/5/6 574/5/6 578/5/6
f 575/5/6 576/5/6 579/5/6
f 579/5/6 576/5/6 580/5/6
