# MagicaVoxel @ Ephtracy

# group
o 

# material
mtllib SpaceShipObject.mtl
usemtl palette

# normals
vn -1 0 0
vn 1 0 0
vn 0 0 1
vn 0 0 -1
vn 0 -1 0
vn 0 1 0

# texcoords
vt 0.845703 0.5
vt 0.966797 0.5

# verts
v 0 0.1 -0.7
v 0 0.1 -0.9
v 0 0.2 -0.7
v 0 0.2 -0.9
v 0 0.2 -1
v 0 0.2 -1.1
v 0 0.3 -0.7
v 0 0.3 -0.9
v 0 0.3 -1
v 0 0.3 -1.1
v 0 0.4 -0.7
v 0 0.4 -0.9
v 0.1 0.1 -0.9
v 0.1 0.1 -1
v 0.1 0.2 -0.5
v 0.1 0.2 -0.7
v 0.1 0.2 -0.9
v 0.1 0.2 -1
v 0.1 0.2 -1.1
v 0.1 0.2 -1.3
v 0.1 0.3 -0.5
v 0.1 0.3 -0.7
v 0.1 0.3 -0.9
v 0.1 0.3 -1
v 0.1 0.3 -1.1
v 0.1 0.3 -1.3
v 0.1 0.4 -0.9
v 0.1 0.4 -1.1
v 0.4 0.1 -0.9
v 0.4 0.1 -1.5
v 0.4 0.1 -1.6
v 0.4 0.1 -1.7
v 0.4 0.2 -0.5
v 0.4 0.2 -0.7
v 0.4 0.2 -0.9
v 0.4 0.2 -1.5
v 0.4 0.2 -1.6
v 0.4 0.2 -1.7
v 0.4 0.2 -1.8
v 0.4 0.3 -0.5
v 0.4 0.3 -0.7
v 0.4 0.3 -0.9
v 0.4 0.3 -1.5
v 0.4 0.3 -1.6
v 0.4 0.3 -1.7
v 0.4 0.3 -1.8
v 0.4 0.4 -0.9
v 0.4 0.4 -1.5
v 0.4 0.4 -1.6
v 0.4 0.4 -1.7
v 0.5 0.1 -1.7
v 0.5 0.1 -1.8
v 0.5 0.2 -1.7
v 0.5 0.2 -1.8
v 0.5 0.2 -2
v 0.5 0.3 -1.7
v 0.5 0.3 -1.8
v 0.5 0.3 -2
v 0.5 0.4 -1.7
v 0.5 0.4 -1.8
v 0.8 0.2 -0.5
v 0.8 0.2 -0.7
v 0.8 0.2 -0.9
v 0.8 0.2 -1
v 0.8 0.2 -1.1
v 0.8 0.3 -0.5
v 0.8 0.3 -0.7
v 0.8 0.3 -0.9
v 0.8 0.3 -1
v 0.8 0.3 -1.1
v 0.9 0.1 -0.9
v 0.9 0.1 -1
v 0.9 0.2 -0.9
v 0.9 0.2 -1
v 0.9 0.2 -1.1
v 0.9 0.2 -1.3
v 0.9 0.3 -0.9
v 0.9 0.3 -1
v 0.9 0.3 -1.1
v 0.9 0.3 -1.3
v 0.9 0.4 -0.9
v 0.9 0.4 -1.1
v 0.2 0.1 -0.9
v 0.2 0.1 -1
v 0.2 0.2 -0.9
v 0.2 0.2 -1
v 0.2 0.2 -1.1
v 0.2 0.2 -1.3
v 0.2 0.3 -0.9
v 0.2 0.3 -1
v 0.2 0.3 -1.1
v 0.2 0.3 -1.3
v 0.2 0.4 -0.9
v 0.2 0.4 -1.1
v 0.3 0.2 -0.5
v 0.3 0.2 -0.7
v 0.3 0.2 -0.9
v 0.3 0.2 -1
v 0.3 0.2 -1.1
v 0.3 0.3 -0.5
v 0.3 0.3 -0.7
v 0.3 0.3 -0.9
v 0.3 0.3 -1
v 0.3 0.3 -1.1
v 0.6 0.1 -1.7
v 0.6 0.1 -1.8
v 0.6 0.2 -1.7
v 0.6 0.2 -1.8
v 0.6 0.2 -2
v 0.6 0.3 -1.7
v 0.6 0.3 -1.8
v 0.6 0.3 -2
v 0.6 0.4 -1.7
v 0.6 0.4 -1.8
v 0.7 0.1 -0.9
v 0.7 0.1 -1.5
v 0.7 0.1 -1.6
v 0.7 0.1 -1.7
v 0.7 0.2 -0.5
v 0.7 0.2 -0.7
v 0.7 0.2 -0.9
v 0.7 0.2 -1.5
v 0.7 0.2 -1.6
v 0.7 0.2 -1.7
v 0.7 0.2 -1.8
v 0.7 0.3 -0.5
v 0.7 0.3 -0.7
v 0.7 0.3 -0.9
v 0.7 0.3 -1.5
v 0.7 0.3 -1.6
v 0.7 0.3 -1.7
v 0.7 0.3 -1.8
v 0.7 0.4 -0.9
v 0.7 0.4 -1.5
v 0.7 0.4 -1.6
v 0.7 0.4 -1.7
v 1 0.1 -0.9
v 1 0.1 -1
v 1 0.2 -0.5
v 1 0.2 -0.7
v 1 0.2 -0.9
v 1 0.2 -1
v 1 0.2 -1.1
v 1 0.2 -1.3
v 1 0.3 -0.5
v 1 0.3 -0.7
v 1 0.3 -0.9
v 1 0.3 -1
v 1 0.3 -1.1
v 1 0.3 -1.3
v 1 0.4 -0.9
v 1 0.4 -1.1
v 1.1 0.1 -0.7
v 1.1 0.1 -0.9
v 1.1 0.2 -0.7
v 1.1 0.2 -0.9
v 1.1 0.2 -1
v 1.1 0.2 -1.1
v 1.1 0.3 -0.7
v 1.1 0.3 -0.9
v 1.1 0.3 -1
v 1.1 0.3 -1.1
v 1.1 0.4 -0.7
v 1.1 0.4 -0.9
v 0.1 0.2 -0.5
v 0.1 0.3 -0.5
v 0.3 0.2 -0.5
v 0.3 0.3 -0.5
v 0.4 0.2 -0.5
v 0.4 0.3 -0.5
v 0.7 0.2 -0.5
v 0.7 0.3 -0.5
v 0.8 0.2 -0.5
v 0.8 0.3 -0.5
v 1 0.2 -0.5
v 1 0.3 -0.5
v 0 0.1 -0.7
v 0 0.2 -0.7
v 0 0.3 -0.7
v 0 0.4 -0.7
v 0.1 0.1 -0.7
v 0.1 0.2 -0.7
v 0.1 0.3 -0.7
v 0.1 0.4 -0.7
v 0.3 0.2 -0.7
v 0.3 0.3 -0.7
v 0.4 0.2 -0.7
v 0.4 0.3 -0.7
v 0.7 0.2 -0.7
v 0.7 0.3 -0.7
v 0.8 0.2 -0.7
v 0.8 0.3 -0.7
v 1 0.1 -0.7
v 1 0.2 -0.7
v 1 0.3 -0.7
v 1 0.4 -0.7
v 1.1 0.1 -0.7
v 1.1 0.2 -0.7
v 1.1 0.3 -0.7
v 1.1 0.4 -0.7
v 0 0.1 -0.9
v 0 0.2 -0.9
v 0 0.3 -0.9
v 0 0.4 -0.9
v 0.1 0.1 -0.9
v 0.1 0.2 -0.9
v 0.1 0.3 -0.9
v 0.1 0.4 -0.9
v 0.2 0.1 -0.9
v 0.2 0.2 -0.9
v 0.2 0.3 -0.9
v 0.2 0.4 -0.9
v 0.3 0.2 -0.9
v 0.3 0.3 -0.9
v 0.4 0.1 -0.9
v 0.4 0.2 -0.9
v 0.4 0.3 -0.9
v 0.4 0.4 -0.9
v 0.7 0.1 -0.9
v 0.7 0.2 -0.9
v 0.7 0.3 -0.9
v 0.7 0.4 -0.9
v 0.8 0.2 -0.9
v 0.8 0.3 -0.9
v 0.9 0.1 -0.9
v 0.9 0.2 -0.9
v 0.9 0.3 -0.9
v 0.9 0.4 -0.9
v 1 0.1 -0.9
v 1 0.2 -0.9
v 1 0.3 -0.9
v 1 0.4 -0.9
v 1.1 0.1 -0.9
v 1.1 0.2 -0.9
v 1.1 0.3 -0.9
v 1.1 0.4 -0.9
v 0.1 0.1 -1
v 0.1 0.2 -1
v 0.2 0.1 -1
v 0.2 0.2 -1
v 0.9 0.1 -1
v 0.9 0.2 -1
v 1 0.1 -1
v 1 0.2 -1
v 0 0.2 -1.1
v 0 0.3 -1.1
v 0.1 0.2 -1.1
v 0.1 0.3 -1.1
v 0.1 0.4 -1.1
v 0.2 0.2 -1.1
v 0.2 0.3 -1.1
v 0.2 0.4 -1.1
v 0.3 0.2 -1.1
v 0.3 0.3 -1.1
v 0.8 0.2 -1.1
v 0.8 0.3 -1.1
v 0.9 0.2 -1.1
v 0.9 0.3 -1.1
v 0.9 0.4 -1.1
v 1 0.2 -1.1
v 1 0.3 -1.1
v 1 0.4 -1.1
v 1.1 0.2 -1.1
v 1.1 0.3 -1.1
v 0.1 0.2 -1.3
v 0.1 0.3 -1.3
v 0.2 0.2 -1.3
v 0.2 0.3 -1.3
v 0.9 0.2 -1.3
v 0.9 0.3 -1.3
v 1 0.2 -1.3
v 1 0.3 -1.3
v 0.4 0.1 -1.7
v 0.4 0.2 -1.7
v 0.4 0.3 -1.7
v 0.4 0.4 -1.7
v 0.5 0.1 -1.7
v 0.5 0.2 -1.7
v 0.5 0.3 -1.7
v 0.5 0.4 -1.7
v 0.6 0.1 -1.7
v 0.6 0.2 -1.7
v 0.6 0.3 -1.7
v 0.6 0.4 -1.7
v 0.7 0.1 -1.7
v 0.7 0.2 -1.7
v 0.7 0.3 -1.7
v 0.7 0.4 -1.7
v 0.4 0.2 -1.8
v 0.4 0.3 -1.8
v 0.5 0.1 -1.8
v 0.5 0.2 -1.8
v 0.5 0.3 -1.8
v 0.5 0.4 -1.8
v 0.6 0.1 -1.8
v 0.6 0.2 -1.8
v 0.6 0.3 -1.8
v 0.6 0.4 -1.8
v 0.7 0.2 -1.8
v 0.7 0.3 -1.8
v 0.5 0.2 -2
v 0.5 0.3 -2
v 0.6 0.2 -2
v 0.6 0.3 -2
v 0 0.1 -0.7
v 0.1 0.1 -0.7
v 1 0.1 -0.7
v 1.1 0.1 -0.7
v 0.2 0.1 -0.8
v 0.5 0.1 -0.8
v 0.6 0.1 -0.8
v 0.9 0.1 -0.8
v 0 0.1 -0.9
v 0.1 0.1 -0.9
v 0.2 0.1 -0.9
v 0.4 0.1 -0.9
v 0.7 0.1 -0.9
v 0.9 0.1 -0.9
v 1 0.1 -0.9
v 1.1 0.1 -0.9
v 0.1 0.1 -1
v 0.2 0.1 -1
v 0.9 0.1 -1
v 1 0.1 -1
v 0.4 0.1 -1.5
v 0.5 0.1 -1.5
v 0.6 0.1 -1.5
v 0.7 0.1 -1.5
v 0.4 0.1 -1.6
v 0.5 0.1 -1.6
v 0.6 0.1 -1.6
v 0.7 0.1 -1.6
v 0.4 0.1 -1.7
v 0.5 0.1 -1.7
v 0.6 0.1 -1.7
v 0.7 0.1 -1.7
v 0.5 0.1 -1.8
v 0.6 0.1 -1.8
v 0.1 0.2 -0.5
v 0.3 0.2 -0.5
v 0.4 0.2 -0.5
v 0.7 0.2 -0.5
v 0.8 0.2 -0.5
v 1 0.2 -0.5
v 0.1 0.2 -0.7
v 0.3 0.2 -0.7
v 0.4 0.2 -0.7
v 0.7 0.2 -0.7
v 0.8 0.2 -0.7
v 1 0.2 -0.7
v 0 0.2 -0.9
v 0.1 0.2 -0.9
v 0.2 0.2 -0.9
v 0.3 0.2 -0.9
v 0.8 0.2 -0.9
v 0.9 0.2 -0.9
v 1 0.2 -0.9
v 1.1 0.2 -0.9
v 0 0.2 -1
v 0.1 0.2 -1
v 0.2 0.2 -1
v 0.3 0.2 -1
v 0.8 0.2 -1
v 0.9 0.2 -1
v 1 0.2 -1
v 1.1 0.2 -1
v 0 0.2 -1.1
v 0.1 0.2 -1.1
v 0.2 0.2 -1.1
v 0.3 0.2 -1.1
v 0.8 0.2 -1.1
v 0.9 0.2 -1.1
v 1 0.2 -1.1
v 1.1 0.2 -1.1
v 0.1 0.2 -1.3
v 0.2 0.2 -1.3
v 0.9 0.2 -1.3
v 1 0.2 -1.3
v 0.4 0.2 -1.7
v 0.5 0.2 -1.7
v 0.6 0.2 -1.7
v 0.7 0.2 -1.7
v 0.4 0.2 -1.8
v 0.5 0.2 -1.8
v 0.6 0.2 -1.8
v 0.7 0.2 -1.8
v 0.5 0.2 -2
v 0.6 0.2 -2
v 0.1 0.3 -0.5
v 0.3 0.3 -0.5
v 0.4 0.3 -0.5
v 0.7 0.3 -0.5
v 0.8 0.3 -0.5
v 1 0.3 -0.5
v 0.1 0.3 -0.7
v 0.3 0.3 -0.7
v 0.4 0.3 -0.7
v 0.7 0.3 -0.7
v 0.8 0.3 -0.7
v 1 0.3 -0.7
v 0 0.3 -0.9
v 0.1 0.3 -0.9
v 0.2 0.3 -0.9
v 0.3 0.3 -0.9
v 0.8 0.3 -0.9
v 0.9 0.3 -0.9
v 1 0.3 -0.9
v 1.1 0.3 -0.9
v 0 0.3 -1
v 0.1 0.3 -1
v 0.2 0.3 -1
v 0.3 0.3 -1
v 0.8 0.3 -1
v 0.9 0.3 -1
v 1 0.3 -1
v 1.1 0.3 -1
v 0 0.3 -1.1
v 0.1 0.3 -1.1
v 0.2 0.3 -1.1
v 0.3 0.3 -1.1
v 0.8 0.3 -1.1
v 0.9 0.3 -1.1
v 1 0.3 -1.1
v 1.1 0.3 -1.1
v 0.1 0.3 -1.3
v 0.2 0.3 -1.3
v 0.9 0.3 -1.3
v 1 0.3 -1.3
v 0.4 0.3 -1.7
v 0.5 0.3 -1.7
v 0.6 0.3 -1.7
v 0.7 0.3 -1.7
v 0.4 0.3 -1.8
v 0.5 0.3 -1.8
v 0.6 0.3 -1.8
v 0.7 0.3 -1.8
v 0.5 0.3 -2
v 0.6 0.3 -2
v 0 0.4 -0.7
v 0.1 0.4 -0.7
v 1 0.4 -0.7
v 1.1 0.4 -0.7
v 0.2 0.4 -0.8
v 0.5 0.4 -0.8
v 0.6 0.4 -0.8
v 0.9 0.4 -0.8
v 0 0.4 -0.9
v 0.1 0.4 -0.9
v 0.2 0.4 -0.9
v 0.4 0.4 -0.9
v 0.7 0.4 -0.9
v 0.9 0.4 -0.9
v 1 0.4 -0.9
v 1.1 0.4 -0.9
v 0.1 0.4 -1.1
v 0.2 0.4 -1.1
v 0.9 0.4 -1.1
v 1 0.4 -1.1
v 0.4 0.4 -1.5
v 0.5 0.4 -1.5
v 0.6 0.4 -1.5
v 0.7 0.4 -1.5
v 0.4 0.4 -1.6
v 0.5 0.4 -1.6
v 0.6 0.4 -1.6
v 0.7 0.4 -1.6
v 0.4 0.4 -1.7
v 0.5 0.4 -1.7
v 0.6 0.4 -1.7
v 0.7 0.4 -1.7
v 0.5 0.4 -1.8
v 0.6 0.4 -1.8

# faces
f 3/2/1 2/2/1 1/2/1
f 4/2/1 2/2/1 3/2/1
f 7/1/1 4/1/1 3/1/1
f 7/1/1 5/1/1 4/1/1
f 8/1/1 5/1/1 7/1/1
f 9/2/1 6/2/1 5/2/1
f 9/1/1 5/1/1 8/1/1
f 10/2/1 6/2/1 9/2/1
f 11/2/1 8/2/1 7/2/1
f 12/2/1 8/2/1 11/2/1
f 17/1/1 14/1/1 13/1/1
f 18/1/1 14/1/1 17/1/1
f 21/2/1 16/2/1 15/2/1
f 22/2/1 16/2/1 21/2/1
f 25/1/1 20/1/1 19/1/1
f 26/1/1 20/1/1 25/1/1
f 27/1/1 24/1/1 23/1/1
f 27/1/1 25/1/1 24/1/1
f 28/1/1 25/1/1 27/1/1
f 35/2/1 30/2/1 29/2/1
f 36/1/1 31/1/1 30/1/1
f 36/2/1 30/2/1 35/2/1
f 37/2/1 32/2/1 31/2/1
f 37/1/1 31/1/1 36/1/1
f 38/2/1 32/2/1 37/2/1
f 40/2/1 34/2/1 33/2/1
f 41/2/1 34/2/1 40/2/1
f 42/1/1 39/1/1 38/1/1
f 42/1/1 36/1/1 35/1/1
f 42/1/1 37/1/1 36/1/1
f 42/1/1 38/1/1 37/1/1
f 43/1/1 39/1/1 42/1/1
f 44/1/1 39/1/1 43/1/1
f 45/1/1 39/1/1 44/1/1
f 46/1/1 39/1/1 45/1/1
f 47/2/1 43/2/1 42/2/1
f 48/1/1 44/1/1 43/1/1
f 48/2/1 43/2/1 47/2/1
f 49/2/1 45/2/1 44/2/1
f 49/1/1 44/1/1 48/1/1
f 50/2/1 45/2/1 49/2/1
f 53/1/1 52/1/1 51/1/1
f 54/1/1 52/1/1 53/1/1
f 57/1/1 55/1/1 54/1/1
f 58/1/1 55/1/1 57/1/1
f 59/1/1 57/1/1 56/1/1
f 60/1/1 57/1/1 59/1/1
f 66/2/1 62/2/1 61/2/1
f 67/2/1 62/2/1 66/2/1
f 68/1/1 64/1/1 63/1/1
f 69/2/1 65/2/1 64/2/1
f 69/1/1 64/1/1 68/1/1
f 70/2/1 65/2/1 69/2/1
f 73/1/1 72/1/1 71/1/1
f 74/1/1 72/1/1 73/1/1
f 79/1/1 76/1/1 75/1/1
f 80/1/1 76/1/1 79/1/1
f 81/1/1 78/1/1 77/1/1
f 81/1/1 79/1/1 78/1/1
f 82/1/1 79/1/1 81/1/1
f 83/1/2 84/1/2 85/1/2
f 85/1/2 84/1/2 86/1/2
f 87/1/2 88/1/2 91/1/2
f 91/1/2 88/1/2 92/1/2
f 89/1/2 90/1/2 93/1/2
f 90/1/2 91/1/2 93/1/2
f 93/1/2 91/1/2 94/1/2
f 95/2/2 96/2/2 100/2/2
f 100/2/2 96/2/2 101/2/2
f 97/1/2 98/1/2 102/1/2
f 98/2/2 99/2/2 103/2/2
f 102/1/2 98/1/2 103/1/2
f 103/2/2 99/2/2 104/2/2
f 105/1/2 106/1/2 107/1/2
f 107/1/2 106/1/2 108/1/2
f 108/1/2 109/1/2 111/1/2
f 111/1/2 109/1/2 112/1/2
f 110/1/2 111/1/2 113/1/2
f 113/1/2 111/1/2 114/1/2
f 115/2/2 116/2/2 121/2/2
f 116/1/2 117/1/2 122/1/2
f 121/2/2 116/2/2 122/2/2
f 117/2/2 118/2/2 123/2/2
f 122/1/2 117/1/2 123/1/2
f 123/2/2 118/2/2 124/2/2
f 119/2/2 120/2/2 126/2/2
f 126/2/2 120/2/2 127/2/2
f 124/1/2 125/1/2 128/1/2
f 121/1/2 122/1/2 128/1/2
f 122/1/2 123/1/2 128/1/2
f 123/1/2 124/1/2 128/1/2
f 128/1/2 125/1/2 129/1/2
f 129/1/2 125/1/2 130/1/2
f 130/1/2 125/1/2 131/1/2
f 131/1/2 125/1/2 132/1/2
f 128/2/2 129/2/2 133/2/2
f 129/1/2 130/1/2 134/1/2
f 133/2/2 129/2/2 134/2/2
f 130/2/2 131/2/2 135/2/2
f 134/1/2 130/1/2 135/1/2
f 135/2/2 131/2/2 136/2/2
f 137/1/2 138/1/2 141/1/2
f 141/1/2 138/1/2 142/1/2
f 139/2/2 140/2/2 145/2/2
f 145/2/2 140/2/2 146/2/2
f 143/1/2 144/1/2 149/1/2
f 149/1/2 144/1/2 150/1/2
f 147/1/2 148/1/2 151/1/2
f 148/1/2 149/1/2 151/1/2
f 151/1/2 149/1/2 152/1/2
f 153/2/2 154/2/2 155/2/2
f 155/2/2 154/2/2 156/2/2
f 155/1/2 156/1/2 159/1/2
f 156/1/2 157/1/2 159/1/2
f 159/1/2 157/1/2 160/1/2
f 157/2/2 158/2/2 161/2/2
f 160/1/2 157/1/2 161/1/2
f 161/2/2 158/2/2 162/2/2
f 159/2/2 160/2/2 163/2/2
f 163/2/2 160/2/2 164/2/2
f 167/2/3 166/2/3 165/2/3
f 168/2/3 166/2/3 167/2/3
f 171/2/3 170/2/3 169/2/3
f 172/2/3 170/2/3 171/2/3
f 175/2/3 174/2/3 173/2/3
f 176/2/3 174/2/3 175/2/3
f 181/2/3 178/2/3 177/2/3
f 182/1/3 179/1/3 178/1/3
f 182/2/3 178/2/3 181/2/3
f 183/2/3 180/2/3 179/2/3
f 183/1/3 179/1/3 182/1/3
f 184/2/3 180/2/3 183/2/3
f 185/1/3 182/1/3 181/1/3
f 186/1/3 184/1/3 183/1/3
f 187/1/3 185/1/3 181/1/3
f 187/2/3 186/2/3 185/2/3
f 188/1/3 184/1/3 186/1/3
f 188/2/3 186/2/3 187/2/3
f 189/1/3 187/1/3 181/1/3
f 190/1/3 184/1/3 188/1/3
f 191/1/3 189/1/3 181/1/3
f 191/2/3 190/2/3 189/2/3
f 192/1/3 184/1/3 190/1/3
f 192/2/3 190/2/3 191/2/3
f 193/1/3 191/1/3 181/1/3
f 194/1/3 191/1/3 193/1/3
f 195/1/3 184/1/3 192/1/3
f 196/1/3 184/1/3 195/1/3
f 197/2/3 194/2/3 193/2/3
f 198/1/3 195/1/3 194/1/3
f 198/2/3 194/2/3 197/2/3
f 199/2/3 196/2/3 195/2/3
f 199/1/3 195/1/3 198/1/3
f 200/2/3 196/2/3 199/2/3
f 201/2/4 202/2/4 205/2/4
f 205/2/4 202/2/4 206/2/4
f 203/2/4 204/2/4 207/2/4
f 207/2/4 204/2/4 208/2/4
f 209/2/4 210/2/4 213/2/4
f 211/2/4 212/2/4 214/2/4
f 209/2/4 213/2/4 215/2/4
f 213/1/4 214/1/4 216/1/4
f 215/2/4 213/2/4 216/2/4
f 214/2/4 212/2/4 217/2/4
f 216/1/4 214/1/4 217/1/4
f 217/2/4 212/2/4 218/2/4
f 219/2/4 220/2/4 223/2/4
f 220/1/4 221/1/4 223/1/4
f 221/2/4 222/2/4 224/2/4
f 223/1/4 221/1/4 224/1/4
f 219/2/4 223/2/4 225/2/4
f 225/2/4 223/2/4 226/2/4
f 224/2/4 222/2/4 227/2/4
f 227/2/4 222/2/4 228/2/4
f 229/2/4 230/2/4 233/2/4
f 233/2/4 230/2/4 234/2/4
f 231/2/4 232/2/4 235/2/4
f 235/2/4 232/2/4 236/2/4
f 237/1/4 238/1/4 239/1/4
f 239/1/4 238/1/4 240/1/4
f 241/1/4 242/1/4 243/1/4
f 243/1/4 242/1/4 244/1/4
f 245/2/4 246/2/4 247/2/4
f 247/2/4 246/2/4 248/2/4
f 248/1/4 249/1/4 251/1/4
f 251/1/4 249/1/4 252/1/4
f 250/2/4 251/2/4 253/2/4
f 253/2/4 251/2/4 254/2/4
f 255/2/4 256/2/4 257/2/4
f 257/2/4 256/2/4 258/2/4
f 258/1/4 259/1/4 261/1/4
f 261/1/4 259/1/4 262/1/4
f 260/2/4 261/2/4 263/2/4
f 263/2/4 261/2/4 264/2/4
f 265/1/4 266/1/4 267/1/4
f 267/1/4 266/1/4 268/1/4
f 269/1/4 270/1/4 271/1/4
f 271/1/4 270/1/4 272/1/4
f 273/2/4 274/2/4 277/2/4
f 277/2/4 274/2/4 278/2/4
f 275/2/4 276/2/4 279/2/4
f 279/2/4 276/2/4 280/2/4
f 281/2/4 282/2/4 285/2/4
f 285/2/4 282/2/4 286/2/4
f 283/2/4 284/2/4 287/2/4
f 287/2/4 284/2/4 288/2/4
f 289/1/4 290/1/4 292/1/4
f 292/1/4 290/1/4 293/1/4
f 291/1/4 292/1/4 295/1/4
f 295/1/4 292/1/4 296/1/4
f 293/1/4 294/1/4 297/1/4
f 297/1/4 294/1/4 298/1/4
f 296/1/4 297/1/4 299/1/4
f 299/1/4 297/1/4 300/1/4
f 301/1/4 302/1/4 303/1/4
f 303/1/4 302/1/4 304/1/4
f 309/1/5 307/1/5 306/1/5
f 310/1/5 307/1/5 309/1/5
f 311/1/5 307/1/5 310/1/5
f 312/1/5 307/1/5 311/1/5
f 313/2/5 306/2/5 305/2/5
f 314/1/5 309/1/5 306/1/5
f 314/2/5 306/2/5 313/2/5
f 315/2/5 310/2/5 309/2/5
f 315/1/5 309/1/5 314/1/5
f 316/2/5 310/2/5 315/2/5
f 317/2/5 312/2/5 311/2/5
f 318/1/5 307/1/5 312/1/5
f 318/2/5 312/2/5 317/2/5
f 319/2/5 308/2/5 307/2/5
f 319/1/5 307/1/5 318/1/5
f 320/2/5 308/2/5 319/2/5
f 321/1/5 315/1/5 314/1/5
f 322/1/5 315/1/5 321/1/5
f 323/1/5 319/1/5 318/1/5
f 324/1/5 319/1/5 323/1/5
f 325/2/5 310/2/5 316/2/5
f 326/1/5 311/1/5 310/1/5
f 326/2/5 310/2/5 325/2/5
f 327/2/5 317/2/5 311/2/5
f 327/1/5 311/1/5 326/1/5
f 328/2/5 317/2/5 327/2/5
f 329/1/5 326/1/5 325/1/5
f 329/1/5 327/1/5 326/1/5
f 329/1/5 328/1/5 327/1/5
f 330/1/5 328/1/5 329/1/5
f 331/1/5 328/1/5 330/1/5
f 332/1/5 328/1/5 331/1/5
f 333/2/5 330/2/5 329/2/5
f 334/1/5 331/1/5 330/1/5
f 334/2/5 330/2/5 333/2/5
f 335/2/5 332/2/5 331/2/5
f 335/1/5 331/1/5 334/1/5
f 336/2/5 332/2/5 335/2/5
f 337/1/5 335/1/5 334/1/5
f 338/1/5 335/1/5 337/1/5
f 345/2/5 340/2/5 339/2/5
f 346/2/5 340/2/5 345/2/5
f 347/2/5 342/2/5 341/2/5
f 348/2/5 342/2/5 347/2/5
f 349/2/5 344/2/5 343/2/5
f 350/2/5 344/2/5 349/2/5
f 359/1/5 352/1/5 351/1/5
f 360/1/5 352/1/5 359/1/5
f 361/1/5 354/1/5 353/1/5
f 362/1/5 354/1/5 361/1/5
f 363/1/5 356/1/5 355/1/5
f 364/1/5 356/1/5 363/1/5
f 365/1/5 358/1/5 357/1/5
f 366/1/5 358/1/5 365/1/5
f 367/2/5 362/2/5 361/2/5
f 367/2/5 360/2/5 359/2/5
f 367/2/5 361/2/5 360/2/5
f 368/2/5 362/2/5 367/2/5
f 369/2/5 362/2/5 368/2/5
f 370/2/5 362/2/5 369/2/5
f 371/2/5 364/2/5 363/2/5
f 372/1/5 365/1/5 364/1/5
f 372/2/5 364/2/5 371/2/5
f 373/2/5 366/2/5 365/2/5
f 373/1/5 365/1/5 372/1/5
f 374/2/5 366/2/5 373/2/5
f 375/1/5 369/1/5 368/1/5
f 376/1/5 369/1/5 375/1/5
f 377/1/5 373/1/5 372/1/5
f 378/1/5 373/1/5 377/1/5
f 383/1/5 380/1/5 379/1/5
f 384/1/5 380/1/5 383/1/5
f 385/1/5 382/1/5 381/1/5
f 386/1/5 382/1/5 385/1/5
f 387/1/5 385/1/5 384/1/5
f 388/1/5 385/1/5 387/1/5
f 389/2/6 390/2/6 395/2/6
f 395/2/6 390/2/6 396/2/6
f 391/2/6 392/2/6 397/2/6
f 397/2/6 392/2/6 398/2/6
f 393/2/6 394/2/6 399/2/6
f 399/2/6 394/2/6 400/2/6
f 401/1/6 402/1/6 409/1/6
f 409/1/6 402/1/6 410/1/6
f 403/1/6 404/1/6 411/1/6
f 411/1/6 404/1/6 412/1/6
f 405/1/6 406/1/6 413/1/6
f 413/1/6 406/1/6 414/1/6
f 407/1/6 408/1/6 415/1/6
f 415/1/6 408/1/6 416/1/6
f 409/2/6 410/2/6 417/2/6
f 417/2/6 410/2/6 418/2/6
f 411/2/6 412/2/6 419/2/6
f 419/2/6 412/2/6 420/2/6
f 413/2/6 414/2/6 421/2/6
f 421/2/6 414/2/6 422/2/6
f 415/2/6 416/2/6 423/2/6
f 423/2/6 416/2/6 424/2/6
f 418/1/6 419/1/6 425/1/6
f 425/1/6 419/1/6 426/1/6
f 422/1/6 423/1/6 427/1/6
f 427/1/6 423/1/6 428/1/6
f 429/1/6 430/1/6 433/1/6
f 433/1/6 430/1/6 434/1/6
f 431/1/6 432/1/6 435/1/6
f 435/1/6 432/1/6 436/1/6
f 434/1/6 435/1/6 437/1/6
f 437/1/6 435/1/6 438/1/6
f 440/1/6 441/1/6 443/1/6
f 443/1/6 441/1/6 444/1/6
f 444/1/6 441/1/6 445/1/6
f 445/1/6 441/1/6 446/1/6
f 439/2/6 440/2/6 447/2/6
f 440/1/6 443/1/6 448/1/6
f 447/2/6 440/2/6 448/2/6
f 443/2/6 444/2/6 449/2/6
f 448/1/6 443/1/6 449/1/6
f 449/2/6 444/2/6 450/2/6
f 445/2/6 446/2/6 451/2/6
f 446/1/6 441/1/6 452/1/6
f 451/2/6 446/2/6 452/2/6
f 441/2/6 442/2/6 453/2/6
f 452/1/6 441/1/6 453/1/6
f 453/2/6 442/2/6 454/2/6
f 448/1/6 449/1/6 455/1/6
f 455/1/6 449/1/6 456/1/6
f 452/1/6 453/1/6 457/1/6
f 457/1/6 453/1/6 458/1/6
f 450/2/6 444/2/6 459/2/6
f 444/1/6 445/1/6 460/1/6
f 459/2/6 444/2/6 460/2/6
f 445/2/6 451/2/6 461/2/6
f 460/1/6 445/1/6 461/1/6
f 461/2/6 451/2/6 462/2/6
f 459/1/6 460/1/6 463/1/6
f 460/1/6 461/1/6 463/1/6
f 461/1/6 462/1/6 463/1/6
f 463/1/6 462/1/6 464/1/6
f 464/1/6 462/1/6 465/1/6
f 465/1/6 462/1/6 466/1/6
f 463/2/6 464/2/6 467/2/6
f 464/1/6 465/1/6 468/1/6
f 467/2/6 464/2/6 468/2/6
f 465/2/6 466/2/6 469/2/6
f 468/1/6 465/1/6 469/1/6
f 469/2/6 466/2/6 470/2/6
f 468/1/6 469/1/6 471/1/6
f 471/1/6 469/1/6 472/1/6
